<svg width="96" height="32" viewBox="0 0 96 32" fill="none" xmlns="http://www.w3.org/2000/svg">
<path d="M65.2204 15.3608V17.1936H64.0715V18.3956H65.2204V22.4795C65.2204 23.8741 65.8512 24.4319 67.4383 24.4319C67.7172 24.4319 67.9829 24.3987 68.2153 24.3588V23.1702C68.0161 23.1901 67.8899 23.2034 67.6707 23.2034C66.9602 23.2034 66.6481 22.8713 66.6481 22.1143V18.3956H68.2153V17.1936H66.6481V15.3608H65.2204Z" fill="#78909C"/>
<path d="M72.2584 24.5315C74.3701 24.5315 75.665 23.117 75.665 20.7729C75.665 18.442 74.3634 17.0209 72.2584 17.0209C70.1466 17.0209 68.8451 18.442 68.8451 20.7729C68.8451 23.117 70.14 24.5315 72.2584 24.5315ZM72.2584 23.2631C71.0166 23.2631 70.3193 22.3534 70.3193 20.7729C70.3193 19.2057 71.0166 18.2893 72.2584 18.2893C73.4935 18.2893 74.1974 19.2057 74.1974 20.7729C74.1974 22.3467 73.4935 23.2631 72.2584 23.2631Z" fill="#78909C"/>
<path d="M76.7729 24.392H78.2006V20.1221C78.2006 19.1061 78.9643 18.4221 80.0467 18.4221C80.2991 18.4221 80.7241 18.4686 80.8436 18.5084V17.1006C80.6909 17.0608 80.4186 17.0409 80.2061 17.0409C79.2631 17.0409 78.4596 17.5588 78.2538 18.2694H78.1475V17.1604H76.7729V24.392Z" fill="#78909C"/>
<path d="M84.3886 18.2362C85.4445 18.2362 86.1351 18.9733 86.1683 20.1088H82.516C82.5957 18.9799 83.3328 18.2362 84.3886 18.2362ZM86.1617 22.4397C85.8961 23.0041 85.3051 23.3163 84.4418 23.3163C83.2996 23.3163 82.5625 22.5127 82.516 21.2444V21.1647H87.6226V20.6666C87.6226 18.3956 86.4074 17.0209 84.3953 17.0209C82.3566 17.0209 81.0617 18.4885 81.0617 20.7995C81.0617 23.1104 82.3301 24.5315 84.4019 24.5315C86.0554 24.5315 87.2109 23.7346 87.5363 22.4397H86.1617Z" fill="#78909C"/>
<path d="M55.8575 21.7215C55.9676 23.4973 57.4474 24.6329 59.6499 24.6329C62.0038 24.6329 63.4768 23.4422 63.4768 21.5426C63.4768 20.049 62.6371 19.223 60.5997 18.7481L59.5054 18.4797C58.2114 18.1769 57.6883 17.7708 57.6883 17.0618C57.6883 16.1671 58.5005 15.582 59.7187 15.582C60.8751 15.582 61.6735 16.1533 61.818 17.0687H63.3185C63.229 15.3962 61.7561 14.2192 59.7394 14.2192C57.5713 14.2192 56.1259 15.3962 56.1259 17.1651C56.1259 18.6242 56.945 19.4915 58.7414 19.9113L60.0216 20.2211C61.3362 20.5308 61.9144 20.985 61.9144 21.7422C61.9144 22.6232 61.0058 23.2633 59.7669 23.2633C58.4385 23.2633 57.5162 22.6644 57.3855 21.7215H55.8575Z" fill="#78909C"/>
<path d="M41.0676 17.0409C40.0848 17.0409 39.2348 17.5323 38.7965 18.3557H38.6903V17.1604H37.3157V26.7959H38.7434V23.2963H38.8563C39.2348 24.06 40.0516 24.5116 41.0809 24.5116C42.9071 24.5116 44.0692 23.0706 44.0692 20.7729C44.0692 18.4752 42.9071 17.0409 41.0676 17.0409ZM40.6625 23.2299C39.4672 23.2299 38.7168 22.287 38.7168 20.7795C38.7168 19.2655 39.4672 18.3225 40.6692 18.3225C41.8778 18.3225 42.6016 19.2456 42.6016 20.7729C42.6016 22.3069 41.8778 23.2299 40.6625 23.2299Z" fill="#78909C"/>
<path d="M49.0651 17.0409C48.0822 17.0409 47.2322 17.5323 46.794 18.3557H46.6877V17.1604H45.3131V26.7959H46.7408V23.2963H46.8537C47.2322 24.06 48.049 24.5116 49.0783 24.5116C50.9045 24.5116 52.0666 23.0706 52.0666 20.7729C52.0666 18.4752 50.9045 17.0409 49.0651 17.0409ZM48.66 23.2299C47.4647 23.2299 46.7143 22.287 46.7143 20.7795C46.7143 19.2655 47.4647 18.3225 48.6666 18.3225C49.8752 18.3225 50.599 19.2456 50.599 20.7729C50.599 22.3069 49.8752 23.2299 48.66 23.2299Z" fill="#78909C"/>
<path d="M34.7541 24.392H36.3922L32.8062 14.4601H31.1475L27.5615 24.392H29.1446L30.06 21.7559H33.8455L34.7541 24.392ZM31.8977 16.2634H32.0147L33.4532 20.4619H30.4523L31.8977 16.2634Z" fill="#78909C"/>
<path d="M28.5205 6.96877V11.76H30.2504C31.6781 11.76 32.5049 10.8801 32.5049 9.34944C32.5049 7.84202 31.6715 6.96877 30.2504 6.96877H28.5205ZM29.2643 7.64612H30.1674C31.1602 7.64612 31.7479 8.27698 31.7479 9.3594C31.7479 10.4584 31.1701 11.0826 30.1674 11.0826H29.2643V7.64612Z" fill="#78909C"/>
<path d="M35.037 11.8297C36.0928 11.8297 36.7403 11.1225 36.7403 9.95041C36.7403 8.78499 36.0895 8.07444 35.037 8.07444C33.9811 8.07444 33.3303 8.78499 33.3303 9.95041C33.3303 11.1225 33.9778 11.8297 35.037 11.8297ZM35.037 11.1955C34.4161 11.1955 34.0674 10.7406 34.0674 9.95041C34.0674 9.16682 34.4161 8.70862 35.037 8.70862C35.6545 8.70862 36.0065 9.16682 36.0065 9.95041C36.0065 10.7373 35.6545 11.1955 35.037 11.1955Z" fill="#78909C"/>
<path d="M42.254 8.14416H41.5401L40.896 10.9033H40.8395L40.0958 8.14416H39.4118L38.668 10.9033H38.6149L37.9675 8.14416H37.2436L38.2397 11.76H38.9735L39.7173 9.09709H39.7737L40.5208 11.76H41.2612L42.254 8.14416Z" fill="#78909C"/>
<path d="M43.0761 11.76H43.79V9.64495C43.79 9.08049 44.1253 8.72854 44.6532 8.72854C45.1812 8.72854 45.4335 9.01741 45.4335 9.59846V11.76H46.1474V9.41916C46.1474 8.5592 45.7025 8.07444 44.8956 8.07444C44.3511 8.07444 43.9925 8.31682 43.8165 8.71858H43.7634V8.14416H43.0761V11.76Z" fill="#78909C"/>
<path d="M47.2716 11.76H47.9855V6.73303H47.2716V11.76Z" fill="#78909C"/>
<path d="M50.6703 11.8297C51.7262 11.8297 52.3736 11.1225 52.3736 9.95041C52.3736 8.78499 51.7229 8.07444 50.6703 8.07444C49.6145 8.07444 48.9637 8.78499 48.9637 9.95041C48.9637 11.1225 49.6111 11.8297 50.6703 11.8297ZM50.6703 11.1955C50.0494 11.1955 49.7008 10.7406 49.7008 9.95041C49.7008 9.16682 50.0494 8.70862 50.6703 8.70862C51.2879 8.70862 51.6398 9.16682 51.6398 9.95041C51.6398 10.7373 51.2879 11.1955 50.6703 11.1955Z" fill="#78909C"/>
<path d="M54.5006 11.2188C54.1121 11.2188 53.8299 11.0295 53.8299 10.7041C53.8299 10.3854 54.0557 10.216 54.5537 10.1828L55.4369 10.1264V10.4285C55.4369 10.8768 55.0385 11.2188 54.5006 11.2188ZM54.318 11.8198C54.7928 11.8198 55.1879 11.6139 55.4037 11.252H55.4602V11.76H56.1475V9.28967C56.1475 8.526 55.6362 8.07444 54.7297 8.07444C53.9096 8.07444 53.3252 8.47288 53.2522 9.09377H53.9428C54.0225 8.83811 54.2981 8.69202 54.6965 8.69202C55.1846 8.69202 55.4369 8.90784 55.4369 9.28967V9.60178L54.4575 9.65823C53.5975 9.71135 53.1127 10.0865 53.1127 10.7373C53.1127 11.3981 53.6207 11.8198 54.318 11.8198Z" fill="#78909C"/>
<path d="M58.57 11.8198C59.068 11.8198 59.4897 11.584 59.7055 11.1889H59.762V11.76H60.446V6.73303H59.7321V8.71858H59.679C59.4831 8.32014 59.0647 8.0844 58.57 8.0844C57.6569 8.0844 57.0692 8.80823 57.0692 9.95041C57.0692 11.0959 57.6503 11.8198 58.57 11.8198ZM58.7725 8.72522C59.3702 8.72522 59.7454 9.20002 59.7454 9.95374C59.7454 10.7108 59.3735 11.1789 58.7725 11.1789C58.1682 11.1789 57.8063 10.7174 57.8063 9.95041C57.8063 9.19006 58.1716 8.72522 58.7725 8.72522Z" fill="#78909C"/>
<path d="M65.0752 11.8297C66.131 11.8297 66.7785 11.1225 66.7785 9.95041C66.7785 8.78499 66.1277 8.07444 65.0752 8.07444C64.0193 8.07444 63.3685 8.78499 63.3685 9.95041C63.3685 11.1225 64.016 11.8297 65.0752 11.8297ZM65.0752 11.1955C64.4543 11.1955 64.1056 10.7406 64.1056 9.95041C64.1056 9.16682 64.4543 8.70862 65.0752 8.70862C65.6927 8.70862 66.0447 9.16682 66.0447 9.95041C66.0447 10.7373 65.6927 11.1955 65.0752 11.1955Z" fill="#78909C"/>
<path d="M67.7234 11.76H68.4373V9.64495C68.4373 9.08049 68.7727 8.72854 69.3006 8.72854C69.8285 8.72854 70.0809 9.01741 70.0809 9.59846V11.76H70.7947V9.41916C70.7947 8.5592 70.3498 8.07444 69.543 8.07444C68.9984 8.07444 68.6398 8.31682 68.4639 8.71858H68.4107V8.14416H67.7234V11.76Z" fill="#78909C"/>
<path d="M74.0825 7.24436V8.16077H73.5081V8.76174H74.0825V10.8037C74.0825 11.501 74.3979 11.7799 75.1915 11.7799C75.3309 11.7799 75.4637 11.7633 75.58 11.7434V11.149C75.4803 11.159 75.4173 11.1656 75.3077 11.1656C74.9524 11.1656 74.7964 10.9996 74.7964 10.6211V8.76174H75.58V8.16077H74.7964V7.24436H74.0825Z" fill="#78909C"/>
<path d="M76.5382 11.76H77.2521V9.64827C77.2521 9.10041 77.5775 8.73186 78.1618 8.73186C78.6665 8.73186 78.9355 9.02405 78.9355 9.60178V11.76H79.6493V9.42581C79.6493 8.56584 79.1745 8.07776 78.4042 8.07776C77.8597 8.07776 77.4778 8.32014 77.3019 8.72522H77.2454V6.73303H76.5382V11.76Z" fill="#78909C"/>
<path d="M82.2246 8.68206C82.7525 8.68206 83.0978 9.05061 83.1144 9.61838H81.2882C81.3281 9.05393 81.6966 8.68206 82.2246 8.68206ZM83.1111 10.7838C82.9783 11.066 82.6828 11.2221 82.2511 11.2221C81.68 11.2221 81.3115 10.8203 81.2882 10.1862V10.1463H83.8416V9.89729C83.8416 8.76174 83.2339 8.07444 82.2279 8.07444C81.2085 8.07444 80.5611 8.80823 80.5611 9.9637C80.5611 11.1192 81.1953 11.8297 82.2312 11.8297C83.058 11.8297 83.6357 11.4313 83.7984 10.7838H83.1111Z" fill="#78909C"/>
<path d="M19.8154 16.2406C19.8327 14.8958 20.5549 13.6233 21.7006 12.919C20.9779 11.8867 19.7672 11.2322 18.5077 11.1928C17.1643 11.0518 15.862 11.9967 15.1774 11.9967C14.4796 11.9967 13.4256 11.2068 12.2906 11.2302C10.8112 11.278 9.43201 12.1191 8.71225 13.4125C7.16505 16.0912 8.31912 20.028 9.80121 22.1933C10.5427 23.2536 11.4094 24.438 12.5433 24.396C13.653 24.3499 14.0674 23.6884 15.4068 23.6884C16.7338 23.6884 17.1227 24.396 18.2796 24.3693C19.4703 24.3499 20.2205 23.3043 20.936 22.234C21.4688 21.4785 21.8788 20.6435 22.1508 19.7599C20.7515 19.1681 19.817 17.7599 19.8154 16.2406Z" fill="#78909C"/>
<path d="M17.6301 9.76881C18.2793 8.98945 18.5991 7.9877 18.5217 6.97632C17.5298 7.08049 16.6136 7.55454 15.9556 8.30401C15.3122 9.03627 14.9773 10.0204 15.0406 10.9931C16.0329 11.0033 17.0083 10.5421 17.6301 9.76881Z" fill="#78909C"/>
<path d="M3.08658 31.6194L2.7039 32.5433L3.08658 31.6194ZM0.380602 28.9134L1.30448 28.5307L0.380602 28.9134ZM95.6194 28.9134L96.5433 29.2961L95.6194 28.9134ZM92.9134 31.6194L93.2961 32.5433L92.9134 31.6194ZM92.9134 0.380602L93.2961 -0.543277L92.9134 0.380602ZM95.6194 3.08658L94.6955 3.46927L95.6194 3.08658ZM7.5 1H88.5V-1H7.5V1ZM95 7.5V24.5H97V7.5H95ZM88.5 31H7.5V33H88.5V31ZM1 24.5V7.5H-1V24.5H1ZM7.5 31C6.32146 31 5.48764 30.9995 4.83229 30.9547C4.18592 30.9106 3.78654 30.8269 3.46927 30.6955L2.7039 32.5433C3.30548 32.7925 3.94795 32.8991 4.69615 32.9501C5.43537 33.0005 6.34883 33 7.5 33V31ZM-1 24.5C-1 25.6512 -1.00054 26.5646 -0.950105 27.3039C-0.899056 28.052 -0.792462 28.6945 -0.543277 29.2961L1.30448 28.5307C1.17306 28.2135 1.08936 27.8141 1.04526 27.1677C1.00054 26.5124 1 25.6785 1 24.5H-1ZM3.46927 30.6955C2.48915 30.2895 1.71046 29.5108 1.30448 28.5307L-0.543277 29.2961C0.0656865 30.7663 1.23373 31.9343 2.7039 32.5433L3.46927 30.6955ZM95 24.5C95 25.6785 94.9995 26.5124 94.9547 27.1677C94.9106 27.8141 94.8269 28.2135 94.6955 28.5307L96.5433 29.2961C96.7925 28.6945 96.8991 28.052 96.9501 27.3039C97.0005 26.5646 97 25.6512 97 24.5H95ZM88.5 33C89.6512 33 90.5646 33.0005 91.3038 32.9501C92.052 32.8991 92.6945 32.7925 93.2961 32.5433L92.5307 30.6955C92.2135 30.8269 91.8141 30.9106 91.1677 30.9547C90.5124 30.9995 89.6785 31 88.5 31V33ZM94.6955 28.5307C94.2895 29.5108 93.5108 30.2895 92.5307 30.6955L93.2961 32.5433C94.7663 31.9343 95.9343 30.7663 96.5433 29.2961L94.6955 28.5307ZM88.5 1C89.6785 1 90.5124 1.00054 91.1677 1.04526C91.8141 1.08936 92.2135 1.17306 92.5307 1.30448L93.2961 -0.543277C92.6945 -0.792462 92.052 -0.899056 91.3038 -0.950105C90.5646 -1.00054 89.6512 -1 88.5 -1V1ZM97 7.5C97 6.34883 97.0005 5.43537 96.9501 4.69615C96.8991 3.94795 96.7925 3.30548 96.5433 2.7039L94.6955 3.46927C94.8269 3.78654 94.9106 4.18592 94.9547 4.83229C94.9995 5.48764 95 6.32146 95 7.5H97ZM92.5307 1.30448C93.5108 1.71046 94.2895 2.48915 94.6955 3.46927L96.5433 2.7039C95.9343 1.23373 94.7663 0.0656865 93.2961 -0.543277L92.5307 1.30448ZM7.5 -1C6.34883 -1 5.43537 -1.00054 4.69615 -0.950105C3.94795 -0.899056 3.30548 -0.792462 2.7039 -0.543277L3.46927 1.30448C3.78654 1.17306 4.18592 1.08936 4.83229 1.04526C5.48764 1.00054 6.32146 1 7.5 1V-1ZM1 7.5C1 6.32146 1.00054 5.48764 1.04526 4.83229C1.08936 4.18592 1.17306 3.78654 1.30448 3.46927L-0.543277 2.7039C-0.792462 3.30548 -0.899056 3.94795 -0.950105 4.69615C-1.00054 5.43537 -1 6.34883 -1 7.5H1ZM2.7039 -0.543277C1.23373 0.0656865 0.0656865 1.23373 -0.543277 2.7039L1.30448 3.46927C1.71046 2.48915 2.48915 1.71046 3.46927 1.30448L2.7039 -0.543277Z" fill="#78909C"/>
</svg>
