<svg width="15" height="23" viewBox="0 0 15 23" fill="none" xmlns="http://www.w3.org/2000/svg">
<path fill-rule="evenodd" clip-rule="evenodd" d="M7.17635 8.25051C7.17635 5.76032 7.17635 3.11052 7.17635 0.588463C7.17635 0.408999 7.14431 0.205187 7.17635 0.076207C7.18276 0.0504198 7.1768 0.0466269 7.19917 0.076207C7.16494 2.77548 7.21058 5.55121 7.17635 8.25051Z" fill="#393939"/>
<path fill-rule="evenodd" clip-rule="evenodd" d="M7.16382 8.27246C7.16382 10.6449 7.16382 13.0171 7.16382 15.3895C4.79131 14.0451 2.4003 12.7178 0.0449219 11.3569C2.42597 10.3366 4.78749 9.29728 7.16382 8.27246Z" fill="#393939"/>
<path fill-rule="evenodd" clip-rule="evenodd" d="M14.2951 12.6975C11.9787 15.82 9.63584 19.0199 7.2789 22.1579C7.24724 22.2001 7.22144 22.2593 7.16481 22.2778C7.16481 20.544 7.16481 18.847 7.16481 17.0789C7.16481 16.9548 7.14115 16.8053 7.16481 16.7411C7.19152 16.6686 7.47077 16.551 7.59834 16.4795C9.24033 15.5596 10.8496 14.6399 12.4926 13.722C13.1049 13.38 13.707 13.0178 14.2951 12.6975Z" fill="#3B3B3B"/>
<path fill-rule="evenodd" clip-rule="evenodd" d="M14.3177 11.3568C14.3182 11.3382 14.3092 11.3286 14.2948 11.3241C11.9268 7.54806 9.55313 3.77834 7.16454 0.0217981C7.16454 2.76465 7.16454 5.50779 7.16454 8.2506C4.78866 9.29047 2.40087 10.319 0.022817 11.3568C2.38285 12.728 4.79477 14.0493 7.16454 15.4113C4.76697 14.076 2.40067 12.7111 0 11.3786C0 11.3714 0 11.3641 0 11.3568C2.39398 7.57701 4.78002 3.78852 7.16454 0C7.16833 0 7.17214 0 7.17594 0C9.56143 3.78794 11.9474 7.57649 14.3405 11.3568C14.3405 11.3605 14.3405 11.3641 14.3405 11.3677C14.3036 11.3907 14.2694 11.4161 14.2264 11.4331C14.2397 11.3983 14.3365 11.3862 14.3177 11.3568Z" fill="#8C8C8C"/>
<path fill-rule="evenodd" clip-rule="evenodd" d="M7.19829 0.0761719C9.56052 3.82819 11.9233 7.58053 14.2944 11.324C14.3087 11.3285 14.3177 11.3381 14.3172 11.3567C11.9357 10.3257 9.56533 9.28447 7.17547 8.26138C7.19062 10.6227 7.14515 13.0474 7.19829 15.3894C7.19798 15.4 7.18431 15.3978 7.17547 15.4003C7.16576 15.4023 7.16471 15.396 7.16406 15.3894C7.16406 13.0169 7.16406 10.6447 7.16406 8.27227C7.16623 8.26345 7.17551 8.26141 7.17547 8.25048C7.2097 5.55118 7.16406 2.77545 7.19829 0.0761719Z" fill="#353535"/>
<path fill-rule="evenodd" clip-rule="evenodd" d="M7.16515 15.4115C4.79539 14.0495 2.38347 12.7282 0.0234375 11.357C2.40149 10.3192 4.78928 9.29064 7.16515 8.25077C7.16515 5.50797 7.16515 2.76482 7.16515 0.0219727C9.55375 3.77851 11.9274 7.54823 14.2955 11.3243C11.9244 7.58083 9.56161 3.82848 7.19938 0.076468C7.17701 0.0468879 7.18297 0.0506808 7.17656 0.076468C7.14451 0.205448 7.17656 0.40926 7.17656 0.588724C7.17656 3.11078 7.17656 5.76058 7.17656 8.25077C7.1766 8.2617 7.16732 8.26374 7.16515 8.27257C4.78882 9.29739 2.4273 10.3368 0.0462545 11.357C2.40163 12.7179 4.79264 14.0452 7.16515 15.3897C7.1658 15.3963 7.16685 15.4026 7.17656 15.4006C7.17866 15.4098 7.17211 15.4109 7.16515 15.4115Z" fill="#3B3B3B"/>
<path fill-rule="evenodd" clip-rule="evenodd" d="M7.2207 15.3891C7.22386 15.3669 7.25096 15.3676 7.26601 15.3567C7.26285 15.3789 7.23577 15.3783 7.2207 15.3891Z" fill="#8C8C8C"/>
<path fill-rule="evenodd" clip-rule="evenodd" d="M7.2793 15.3569C7.28848 15.3293 7.32632 15.3291 7.34785 15.3132C7.33867 15.3409 7.30082 15.3411 7.2793 15.3569Z" fill="#8C8C8C"/>
<path fill-rule="evenodd" clip-rule="evenodd" d="M7.35938 15.313C7.36254 15.2907 7.38963 15.2914 7.40468 15.2805C7.40152 15.3028 7.37444 15.3021 7.35938 15.313Z" fill="#8C8C8C"/>
<path fill-rule="evenodd" clip-rule="evenodd" d="M7.41602 15.2803C7.41918 15.258 7.44627 15.2587 7.46132 15.2478C7.45816 15.27 7.43108 15.2694 7.41602 15.2803Z" fill="#8C8C8C"/>
<path fill-rule="evenodd" clip-rule="evenodd" d="M7.47266 15.2476C7.47582 15.2253 7.50291 15.226 7.51796 15.2151C7.5148 15.2373 7.48772 15.2367 7.47266 15.2476Z" fill="#8C8C8C"/>
<path fill-rule="evenodd" clip-rule="evenodd" d="M7.5293 15.2151C7.53848 15.1874 7.57633 15.1872 7.59785 15.1714C7.58868 15.199 7.55082 15.1992 7.5293 15.2151Z" fill="#8C8C8C"/>
<path fill-rule="evenodd" clip-rule="evenodd" d="M7.60938 15.1714C7.61254 15.1491 7.63963 15.1498 7.65468 15.1389C7.65152 15.1611 7.62444 15.1605 7.60938 15.1714Z" fill="#8C8C8C"/>
<path fill-rule="evenodd" clip-rule="evenodd" d="M7.66602 15.1387C7.66918 15.1164 7.69627 15.1171 7.71132 15.1062C7.70816 15.1284 7.68108 15.1278 7.66602 15.1387Z" fill="#8C8C8C"/>
<path fill-rule="evenodd" clip-rule="evenodd" d="M7.72266 15.1055C7.75378 15.0703 7.80417 15.0536 7.84725 15.0298C7.81612 15.065 7.76573 15.0818 7.72266 15.1055Z" fill="#8C8C8C"/>
<path fill-rule="evenodd" clip-rule="evenodd" d="M7.86133 15.0295C7.86449 15.0073 7.89158 15.0079 7.90663 14.9971C7.90347 15.0193 7.87639 15.0187 7.86133 15.0295Z" fill="#8C8C8C"/>
<path fill-rule="evenodd" clip-rule="evenodd" d="M7.91797 14.9968C7.92113 14.9746 7.94822 14.9752 7.96328 14.9644C7.96012 14.9866 7.93303 14.986 7.91797 14.9968Z" fill="#8C8C8C"/>
<path fill-rule="evenodd" clip-rule="evenodd" d="M7.97461 14.9644C7.99854 14.9327 8.0435 14.9211 8.07744 14.8989C8.05454 14.9316 8.01133 14.9449 7.97461 14.9644Z" fill="#8C8C8C"/>
<path fill-rule="evenodd" clip-rule="evenodd" d="M8.11133 14.8879C8.11449 14.8657 8.14158 14.8663 8.15663 14.8555C8.15347 14.8777 8.12639 14.8771 8.11133 14.8879Z" fill="#8C8C8C"/>
<path fill-rule="evenodd" clip-rule="evenodd" d="M8.16797 14.8552C8.17113 14.833 8.19822 14.8336 8.21327 14.8228C8.21011 14.845 8.18303 14.8444 8.16797 14.8552Z" fill="#8C8C8C"/>
<path fill-rule="evenodd" clip-rule="evenodd" d="M8.22461 14.8228C8.24854 14.7911 8.2935 14.7795 8.32744 14.7573C8.30455 14.79 8.26133 14.8033 8.22461 14.8228Z" fill="#8C8C8C"/>
<path fill-rule="evenodd" clip-rule="evenodd" d="M8.36328 14.7463C8.36644 14.7241 8.39354 14.7247 8.40859 14.7139C8.40543 14.7361 8.37835 14.7355 8.36328 14.7463Z" fill="#8C8C8C"/>
<path fill-rule="evenodd" clip-rule="evenodd" d="M8.41992 14.7136C8.42308 14.6914 8.45018 14.692 8.46523 14.6812C8.46207 14.7034 8.43499 14.7027 8.41992 14.7136Z" fill="#8C8C8C"/>
<path fill-rule="evenodd" clip-rule="evenodd" d="M8.47656 14.6809C8.47972 14.6587 8.50681 14.6593 8.52187 14.6484C8.51871 14.6707 8.49163 14.67 8.47656 14.6809Z" fill="#8C8C8C"/>
<path fill-rule="evenodd" clip-rule="evenodd" d="M8.5332 14.6482C8.53636 14.6259 8.56346 14.6266 8.57851 14.6157C8.57535 14.638 8.54827 14.6373 8.5332 14.6482Z" fill="#8C8C8C"/>
<path fill-rule="evenodd" clip-rule="evenodd" d="M8.61328 14.6045C8.61644 14.5822 8.64354 14.5829 8.65859 14.572C8.65543 14.5943 8.62835 14.5936 8.61328 14.6045Z" fill="#8C8C8C"/>
<path fill-rule="evenodd" clip-rule="evenodd" d="M8.66992 14.5718C8.67308 14.5495 8.70018 14.5502 8.71523 14.5393C8.71207 14.5615 8.68499 14.5609 8.66992 14.5718Z" fill="#8C8C8C"/>
<path fill-rule="evenodd" clip-rule="evenodd" d="M8.72656 14.5391C8.72972 14.5168 8.75682 14.5175 8.77187 14.5066C8.76871 14.5288 8.74163 14.5282 8.72656 14.5391Z" fill="#8C8C8C"/>
<path fill-rule="evenodd" clip-rule="evenodd" d="M8.78516 14.5063C8.78832 14.4841 8.81541 14.4847 8.83046 14.4739C8.8273 14.4961 8.80022 14.4955 8.78516 14.5063Z" fill="#8C8C8C"/>
<path fill-rule="evenodd" clip-rule="evenodd" d="M8.8418 14.4741C8.85098 14.4465 8.88882 14.4462 8.91035 14.4304C8.90118 14.458 8.86332 14.4583 8.8418 14.4741Z" fill="#8C8C8C"/>
<path fill-rule="evenodd" clip-rule="evenodd" d="M8.92188 14.4302C8.92504 14.4079 8.95213 14.4086 8.96718 14.3977C8.96402 14.4199 8.93694 14.4193 8.92188 14.4302Z" fill="#8C8C8C"/>
<path fill-rule="evenodd" clip-rule="evenodd" d="M8.97852 14.3975C8.98168 14.3752 9.00877 14.3759 9.02383 14.365C9.02067 14.3872 8.99358 14.3866 8.97852 14.3975Z" fill="#8C8C8C"/>
<path fill-rule="evenodd" clip-rule="evenodd" d="M9.03516 14.3647C9.03832 14.3425 9.06541 14.3431 9.08046 14.3323C9.0773 14.3545 9.05022 14.3539 9.03516 14.3647Z" fill="#8C8C8C"/>
<path fill-rule="evenodd" clip-rule="evenodd" d="M9.0918 14.3322C9.10098 14.3046 9.13882 14.3044 9.16035 14.2886C9.15117 14.3162 9.11332 14.3164 9.0918 14.3322Z" fill="#8C8C8C"/>
<path fill-rule="evenodd" clip-rule="evenodd" d="M9.17188 14.2886C9.17504 14.2663 9.20213 14.267 9.21719 14.2561C9.21402 14.2783 9.18694 14.2777 9.17188 14.2886Z" fill="#8C8C8C"/>
<path fill-rule="evenodd" clip-rule="evenodd" d="M9.22852 14.2559C9.23168 14.2336 9.25877 14.2343 9.27383 14.2234C9.27067 14.2456 9.24358 14.245 9.22852 14.2559Z" fill="#8C8C8C"/>
<path fill-rule="evenodd" clip-rule="evenodd" d="M9.28711 14.2227C9.31824 14.1875 9.36863 14.1707 9.4117 14.147C9.38058 14.1822 9.33019 14.1989 9.28711 14.2227Z" fill="#8C8C8C"/>
<path fill-rule="evenodd" clip-rule="evenodd" d="M9.42383 14.1467C9.42699 14.1245 9.45408 14.1251 9.46914 14.1143C9.46598 14.1365 9.43889 14.1359 9.42383 14.1467Z" fill="#8C8C8C"/>
<path fill-rule="evenodd" clip-rule="evenodd" d="M9.48047 14.114C9.48363 14.0918 9.51072 14.0924 9.52577 14.0815C9.52261 14.1038 9.49553 14.1031 9.48047 14.114Z" fill="#8C8C8C"/>
<path fill-rule="evenodd" clip-rule="evenodd" d="M9.53711 14.0816C9.56103 14.0499 9.606 14.0383 9.63994 14.0161C9.61704 14.0488 9.57383 14.0621 9.53711 14.0816Z" fill="#8C8C8C"/>
<path fill-rule="evenodd" clip-rule="evenodd" d="M9.67383 14.0051C9.67699 13.9829 9.70408 13.9835 9.71914 13.9727C9.71598 13.9949 9.68889 13.9943 9.67383 14.0051Z" fill="#8C8C8C"/>
<path fill-rule="evenodd" clip-rule="evenodd" d="M9.73242 13.9724C9.73558 13.9502 9.76268 13.9508 9.77773 13.9399C9.77457 13.9622 9.74749 13.9615 9.73242 13.9724Z" fill="#8C8C8C"/>
<path fill-rule="evenodd" clip-rule="evenodd" d="M9.78906 13.94C9.81299 13.9083 9.85795 13.8967 9.8919 13.8745C9.869 13.9072 9.82579 13.9205 9.78906 13.94Z" fill="#8C8C8C"/>
<path fill-rule="evenodd" clip-rule="evenodd" d="M9.92578 13.8633C9.92894 13.841 9.95603 13.8417 9.97109 13.8308C9.96793 13.853 9.94084 13.8524 9.92578 13.8633Z" fill="#8C8C8C"/>
<path fill-rule="evenodd" clip-rule="evenodd" d="M9.98242 13.8308C9.98558 13.8086 10.0127 13.8092 10.0277 13.7983C10.0246 13.8206 9.99749 13.8199 9.98242 13.8308Z" fill="#8C8C8C"/>
<path fill-rule="evenodd" clip-rule="evenodd" d="M10.0391 13.7981C10.0422 13.7758 10.0693 13.7765 10.0844 13.7656C10.0812 13.7879 10.0541 13.7872 10.0391 13.7981Z" fill="#8C8C8C"/>
<path fill-rule="evenodd" clip-rule="evenodd" d="M10.0957 13.7654C10.0989 13.7431 10.126 13.7438 10.141 13.7329C10.1379 13.7551 10.1108 13.7545 10.0957 13.7654Z" fill="#8C8C8C"/>
<path fill-rule="evenodd" clip-rule="evenodd" d="M10.1758 13.7217C10.1789 13.6994 10.206 13.7001 10.2211 13.6892C10.2179 13.7114 10.1908 13.7108 10.1758 13.7217Z" fill="#8C8C8C"/>
<path fill-rule="evenodd" clip-rule="evenodd" d="M10.2344 13.689C10.2375 13.6667 10.2646 13.6674 10.2797 13.6565C10.2765 13.6787 10.2494 13.6781 10.2344 13.689Z" fill="#8C8C8C"/>
<path fill-rule="evenodd" clip-rule="evenodd" d="M10.291 13.6562C10.2942 13.634 10.3213 13.6346 10.3363 13.6238C10.3332 13.646 10.3061 13.6454 10.291 13.6562Z" fill="#8C8C8C"/>
<path fill-rule="evenodd" clip-rule="evenodd" d="M10.3477 13.6235C10.3508 13.6013 10.3779 13.6019 10.393 13.5911C10.3898 13.6133 10.3627 13.6127 10.3477 13.6235Z" fill="#8C8C8C"/>
<path fill-rule="evenodd" clip-rule="evenodd" d="M10.4043 13.5913C10.4135 13.5637 10.4513 13.5634 10.4729 13.5476C10.4637 13.5752 10.4258 13.5754 10.4043 13.5913Z" fill="#8C8C8C"/>
<path fill-rule="evenodd" clip-rule="evenodd" d="M10.4844 13.5474C10.4875 13.5251 10.5146 13.5258 10.5297 13.5149C10.5265 13.5371 10.4994 13.5365 10.4844 13.5474Z" fill="#8C8C8C"/>
<path fill-rule="evenodd" clip-rule="evenodd" d="M10.541 13.5146C10.5442 13.4924 10.5713 13.493 10.5863 13.4822C10.5832 13.5044 10.5561 13.5038 10.541 13.5146Z" fill="#8C8C8C"/>
<path fill-rule="evenodd" clip-rule="evenodd" d="M10.5977 13.4819C10.6008 13.4597 10.6279 13.4603 10.643 13.4495C10.6398 13.4717 10.6127 13.4711 10.5977 13.4819Z" fill="#8C8C8C"/>
<path fill-rule="evenodd" clip-rule="evenodd" d="M10.6562 13.4494C10.6654 13.4218 10.7033 13.4216 10.7248 13.4058C10.7156 13.4334 10.6778 13.4336 10.6562 13.4494Z" fill="#8C8C8C"/>
<path fill-rule="evenodd" clip-rule="evenodd" d="M10.7363 13.4055C10.7395 13.3833 10.7666 13.3839 10.7816 13.373C10.7785 13.3953 10.7514 13.3946 10.7363 13.4055Z" fill="#8C8C8C"/>
<path fill-rule="evenodd" clip-rule="evenodd" d="M10.793 13.373C10.7961 13.3508 10.8232 13.3514 10.8383 13.3406C10.8351 13.3628 10.808 13.3622 10.793 13.373Z" fill="#8C8C8C"/>
<path fill-rule="evenodd" clip-rule="evenodd" d="M10.8496 13.3403C10.8528 13.3181 10.8799 13.3187 10.8949 13.3079C10.8918 13.3301 10.8647 13.3295 10.8496 13.3403Z" fill="#8C8C8C"/>
<path fill-rule="evenodd" clip-rule="evenodd" d="M10.9062 13.3078C10.9154 13.2802 10.9533 13.28 10.9748 13.2642C10.9656 13.2918 10.9278 13.292 10.9062 13.3078Z" fill="#8C8C8C"/>
<path fill-rule="evenodd" clip-rule="evenodd" d="M10.9863 13.2639C10.9895 13.2417 11.0166 13.2423 11.0316 13.2314C11.0285 13.2537 11.0014 13.253 10.9863 13.2639Z" fill="#8C8C8C"/>
<path fill-rule="evenodd" clip-rule="evenodd" d="M11.043 13.2312C11.0461 13.209 11.0732 13.2096 11.0883 13.1987C11.0851 13.221 11.058 13.2203 11.043 13.2312Z" fill="#8C8C8C"/>
<path fill-rule="evenodd" clip-rule="evenodd" d="M11.0996 13.1983C11.1307 13.1631 11.1811 13.1463 11.2242 13.1226C11.1931 13.1577 11.1427 13.1745 11.0996 13.1983Z" fill="#8C8C8C"/>
<path fill-rule="evenodd" clip-rule="evenodd" d="M11.2383 13.1223C11.2414 13.1001 11.2685 13.1007 11.2836 13.0898C11.2804 13.1121 11.2533 13.1114 11.2383 13.1223Z" fill="#8C8C8C"/>
<path fill-rule="evenodd" clip-rule="evenodd" d="M11.2949 13.0896C11.2981 13.0674 11.3252 13.068 11.3402 13.0571C11.3371 13.0794 11.31 13.0787 11.2949 13.0896Z" fill="#8C8C8C"/>
<path fill-rule="evenodd" clip-rule="evenodd" d="M11.3516 13.0572C11.3755 13.0255 11.4204 13.0138 11.4544 12.9917C11.4315 13.0244 11.3883 13.0377 11.3516 13.0572Z" fill="#8C8C8C"/>
<path fill-rule="evenodd" clip-rule="evenodd" d="M11.4883 12.9805C11.4914 12.9582 11.5185 12.9589 11.5336 12.948C11.5304 12.9702 11.5033 12.9696 11.4883 12.9805Z" fill="#8C8C8C"/>
<path fill-rule="evenodd" clip-rule="evenodd" d="M11.5449 12.9477C11.5481 12.9255 11.5752 12.9261 11.5902 12.9153C11.5871 12.9375 11.56 12.9369 11.5449 12.9477Z" fill="#8C8C8C"/>
<path fill-rule="evenodd" clip-rule="evenodd" d="M11.6016 12.9156C11.6255 12.8839 11.6704 12.8722 11.7044 12.8501C11.6815 12.8828 11.6383 12.8961 11.6016 12.9156Z" fill="#8C8C8C"/>
<path fill-rule="evenodd" clip-rule="evenodd" d="M11.7402 12.8389C11.7434 12.8166 11.7705 12.8173 11.7855 12.8064C11.7824 12.8286 11.7553 12.828 11.7402 12.8389Z" fill="#8C8C8C"/>
<path fill-rule="evenodd" clip-rule="evenodd" d="M11.7969 12.8061C11.8 12.7839 11.8271 12.7845 11.8422 12.7737C11.839 12.7959 11.8119 12.7953 11.7969 12.8061Z" fill="#8C8C8C"/>
<path fill-rule="evenodd" clip-rule="evenodd" d="M11.8535 12.7734C11.8567 12.7512 11.8838 12.7518 11.8988 12.741C11.8957 12.7632 11.8686 12.7626 11.8535 12.7734Z" fill="#8C8C8C"/>
<path fill-rule="evenodd" clip-rule="evenodd" d="M11.9102 12.7407C11.9133 12.7185 11.9404 12.7191 11.9555 12.7083C11.9523 12.7305 11.9252 12.7299 11.9102 12.7407Z" fill="#8C8C8C"/>
<path fill-rule="evenodd" clip-rule="evenodd" d="M11.9668 12.7085C11.976 12.6808 12.0138 12.6806 12.0354 12.6648C12.0262 12.6924 11.9883 12.6926 11.9668 12.7085Z" fill="#8C8C8C"/>
<path fill-rule="evenodd" clip-rule="evenodd" d="M12.0469 12.6645C12.05 12.6423 12.0771 12.6429 12.0922 12.6321C12.089 12.6543 12.0619 12.6537 12.0469 12.6645Z" fill="#8C8C8C"/>
<path fill-rule="evenodd" clip-rule="evenodd" d="M12.1035 12.6318C12.1067 12.6096 12.1338 12.6102 12.1488 12.5994C12.1457 12.6216 12.1186 12.621 12.1035 12.6318Z" fill="#8C8C8C"/>
<path fill-rule="evenodd" clip-rule="evenodd" d="M12.1621 12.5991C12.1653 12.5769 12.1924 12.5775 12.2074 12.5667C12.2043 12.5889 12.1772 12.5883 12.1621 12.5991Z" fill="#8C8C8C"/>
<path fill-rule="evenodd" clip-rule="evenodd" d="M12.2188 12.5666C12.2279 12.539 12.2658 12.5388 12.2873 12.5229C12.2781 12.5506 12.2403 12.5508 12.2188 12.5666Z" fill="#8C8C8C"/>
<path fill-rule="evenodd" clip-rule="evenodd" d="M12.2988 12.5227C12.302 12.5005 12.3291 12.5011 12.3441 12.4902C12.341 12.5125 12.3139 12.5118 12.2988 12.5227Z" fill="#8C8C8C"/>
<path fill-rule="evenodd" clip-rule="evenodd" d="M12.3555 12.49C12.3586 12.4677 12.3857 12.4684 12.4008 12.4575C12.3976 12.4798 12.3705 12.4791 12.3555 12.49Z" fill="#8C8C8C"/>
<path fill-rule="evenodd" clip-rule="evenodd" d="M12.4121 12.4575C12.4153 12.4353 12.4424 12.4359 12.4574 12.425C12.4543 12.4473 12.4272 12.4466 12.4121 12.4575Z" fill="#8C8C8C"/>
<path fill-rule="evenodd" clip-rule="evenodd" d="M12.4688 12.425C12.4779 12.3974 12.5158 12.3972 12.5373 12.3813C12.5281 12.409 12.4903 12.4092 12.4688 12.425Z" fill="#8C8C8C"/>
<path fill-rule="evenodd" clip-rule="evenodd" d="M12.5488 12.3811C12.552 12.3589 12.5791 12.3595 12.5941 12.3486C12.591 12.3709 12.5639 12.3702 12.5488 12.3811Z" fill="#8C8C8C"/>
<path fill-rule="evenodd" clip-rule="evenodd" d="M12.6055 12.3484C12.6086 12.3261 12.6357 12.3268 12.6508 12.3159C12.6476 12.3382 12.6205 12.3375 12.6055 12.3484Z" fill="#8C8C8C"/>
<path fill-rule="evenodd" clip-rule="evenodd" d="M12.6641 12.3155C12.6952 12.2803 12.7456 12.2635 12.7887 12.2397C12.7575 12.2749 12.7071 12.2917 12.6641 12.3155Z" fill="#8C8C8C"/>
<path fill-rule="evenodd" clip-rule="evenodd" d="M12.8008 12.2395C12.8039 12.2173 12.831 12.2179 12.8461 12.207C12.8429 12.2293 12.8158 12.2286 12.8008 12.2395Z" fill="#8C8C8C"/>
<path fill-rule="evenodd" clip-rule="evenodd" d="M12.8574 12.2068C12.8606 12.1845 12.8877 12.1852 12.9027 12.1743C12.8996 12.1966 12.8725 12.1959 12.8574 12.2068Z" fill="#8C8C8C"/>
<path fill-rule="evenodd" clip-rule="evenodd" d="M12.9141 12.1744C12.938 12.1427 12.9829 12.131 13.0169 12.1089C12.994 12.1416 12.9508 12.1549 12.9141 12.1744Z" fill="#8C8C8C"/>
<path fill-rule="evenodd" clip-rule="evenodd" d="M13.0508 12.0977C13.0539 12.0754 13.081 12.0761 13.0961 12.0652C13.0929 12.0874 13.0658 12.0868 13.0508 12.0977Z" fill="#8C8C8C"/>
<path fill-rule="evenodd" clip-rule="evenodd" d="M13.1074 12.0649C13.1106 12.0427 13.1377 12.0433 13.1527 12.0325C13.1496 12.0547 13.1225 12.0541 13.1074 12.0649Z" fill="#8C8C8C"/>
<path fill-rule="evenodd" clip-rule="evenodd" d="M13.166 12.0328C13.1899 12.0011 13.2349 11.9894 13.2689 11.9673C13.246 12 13.2027 12.0133 13.166 12.0328Z" fill="#8C8C8C"/>
<path fill-rule="evenodd" clip-rule="evenodd" d="M13.3027 11.956C13.3059 11.9338 13.333 11.9344 13.348 11.9236C13.3449 11.9458 13.3178 11.9452 13.3027 11.956Z" fill="#8C8C8C"/>
<path fill-rule="evenodd" clip-rule="evenodd" d="M13.3594 11.9233C13.3625 11.9011 13.3896 11.9017 13.4047 11.8909C13.4015 11.9131 13.3744 11.9125 13.3594 11.9233Z" fill="#8C8C8C"/>
<path fill-rule="evenodd" clip-rule="evenodd" d="M13.416 11.8906C13.4192 11.8684 13.4463 11.869 13.4613 11.8582C13.4582 11.8804 13.4311 11.8797 13.416 11.8906Z" fill="#8C8C8C"/>
<path fill-rule="evenodd" clip-rule="evenodd" d="M13.4727 11.8579C13.4758 11.8357 13.5029 11.8363 13.518 11.8254C13.5148 11.8477 13.4877 11.847 13.4727 11.8579Z" fill="#8C8C8C"/>
<path fill-rule="evenodd" clip-rule="evenodd" d="M13.5312 11.8256C13.5404 11.798 13.5783 11.7978 13.5998 11.782C13.5906 11.8096 13.5528 11.8098 13.5312 11.8256Z" fill="#8C8C8C"/>
<path fill-rule="evenodd" clip-rule="evenodd" d="M13.6094 11.7817C13.6125 11.7595 13.6396 11.7601 13.6547 11.7493C13.6515 11.7715 13.6244 11.7709 13.6094 11.7817Z" fill="#8C8C8C"/>
<path fill-rule="evenodd" clip-rule="evenodd" d="M13.668 11.749C13.6711 11.7268 13.6982 11.7274 13.7133 11.7166C13.7101 11.7388 13.683 11.7382 13.668 11.749Z" fill="#8C8C8C"/>
<path fill-rule="evenodd" clip-rule="evenodd" d="M13.7246 11.7163C13.7278 11.6941 13.7549 11.6947 13.7699 11.6838C13.7668 11.7061 13.7397 11.7054 13.7246 11.7163Z" fill="#8C8C8C"/>
<path fill-rule="evenodd" clip-rule="evenodd" d="M13.7812 11.6838C13.7904 11.6562 13.8283 11.656 13.8498 11.6401C13.8406 11.6678 13.8028 11.668 13.7812 11.6838Z" fill="#8C8C8C"/>
<path fill-rule="evenodd" clip-rule="evenodd" d="M13.8613 11.6399C13.8645 11.6176 13.8916 11.6183 13.9066 11.6074C13.9035 11.6297 13.8764 11.629 13.8613 11.6399Z" fill="#8C8C8C"/>
<path fill-rule="evenodd" clip-rule="evenodd" d="M13.918 11.6072C13.9211 11.5849 13.9482 11.5856 13.9633 11.5747C13.9601 11.5969 13.933 11.5963 13.918 11.6072Z" fill="#8C8C8C"/>
<path fill-rule="evenodd" clip-rule="evenodd" d="M13.9746 11.5747C13.9778 11.5525 14.0049 11.5531 14.0199 11.5422C14.0168 11.5645 13.9897 11.5638 13.9746 11.5747Z" fill="#8C8C8C"/>
<path fill-rule="evenodd" clip-rule="evenodd" d="M14.0332 11.5422C14.0424 11.5146 14.0802 11.5144 14.1018 11.4985C14.0926 11.5262 14.0547 11.5264 14.0332 11.5422Z" fill="#8C8C8C"/>
<path fill-rule="evenodd" clip-rule="evenodd" d="M14.1133 11.4983C14.1164 11.476 14.1435 11.4767 14.1586 11.4658C14.1554 11.4881 14.1283 11.4874 14.1133 11.4983Z" fill="#8C8C8C"/>
<path fill-rule="evenodd" clip-rule="evenodd" d="M14.1699 11.4656C14.1731 11.4433 14.2002 11.444 14.2152 11.4331C14.2121 11.4553 14.185 11.4547 14.1699 11.4656Z" fill="#8C8C8C"/>
<path fill-rule="evenodd" clip-rule="evenodd" d="M7.19907 22.2885C7.12957 22.3179 7.09678 22.2218 7.07358 22.1904C4.73848 19.034 2.35808 15.8394 0.0117188 12.6864C2.38356 13.9918 4.7834 15.3647 7.15344 16.7082C9.55631 15.3744 11.9235 14.0064 14.3294 12.6755C11.9627 15.8897 9.56855 19.077 7.19907 22.2885ZM12.4926 13.7218C10.8496 14.6397 9.24036 15.5594 7.59837 16.4793C7.4708 16.5508 7.19155 16.6684 7.16485 16.7409C7.14118 16.8051 7.16485 16.9547 7.16485 17.0788C7.16485 18.8468 7.16485 20.5438 7.16485 22.2776C7.22148 22.2591 7.24727 22.1999 7.27893 22.1577C9.63587 19.0197 11.9788 15.8198 14.2952 12.6973C13.707 13.0176 13.105 13.3798 12.4926 13.7218Z" fill="#8C8C8C"/>
<path fill-rule="evenodd" clip-rule="evenodd" d="M14.3174 11.3568C14.3362 11.3862 14.2395 11.3982 14.2261 11.4331C14.2223 11.4331 14.2185 11.4331 14.2147 11.4331C14.1996 11.444 14.1723 11.4434 14.1691 11.4658C14.1653 11.4658 14.1615 11.4658 14.1577 11.4658C14.1425 11.4767 14.1152 11.4761 14.1121 11.4985C14.1082 11.4985 14.1045 11.4985 14.1006 11.4985C14.0792 11.5143 14.0414 11.5145 14.0322 11.5421C14.0284 11.5421 14.0246 11.5421 14.0208 11.5421C14.0056 11.553 13.9783 11.5524 13.9752 11.5748C13.9713 11.5748 13.9676 11.5748 13.9637 11.5748C13.9486 11.5857 13.9213 11.5851 13.9181 11.6075C13.9143 11.6075 13.9105 11.6075 13.9067 11.6075C13.8915 11.6184 13.8642 11.6178 13.8611 11.6402C13.8573 11.6402 13.8535 11.6402 13.8497 11.6402C13.8282 11.656 13.7904 11.6562 13.7812 11.6838C13.7774 11.6838 13.7736 11.6838 13.7698 11.6838C13.7546 11.6947 13.7273 11.6941 13.7242 11.7165C13.7204 11.7165 13.7166 11.7165 13.7128 11.7165C13.6976 11.7274 13.6703 11.7268 13.6671 11.7492C13.6633 11.7492 13.6595 11.7492 13.6557 11.7492C13.6406 11.7601 13.6133 11.7595 13.6101 11.7819C13.6063 11.7819 13.6025 11.7819 13.5987 11.7819C13.5772 11.7977 13.5394 11.7979 13.5302 11.8255C13.5264 11.8255 13.5226 11.8255 13.5188 11.8255C13.5036 11.8364 13.4764 11.8358 13.4732 11.8582C13.4694 11.8582 13.4656 11.8582 13.4618 11.8582C13.4466 11.8691 13.4193 11.8685 13.4161 11.8909C13.4123 11.8909 13.4085 11.8909 13.4047 11.8909C13.3896 11.9018 13.3623 11.9012 13.3591 11.9236C13.3553 11.9236 13.3515 11.9236 13.3477 11.9236C13.3325 11.9345 13.3052 11.9339 13.3021 11.9563C13.2863 11.9558 13.277 11.9614 13.2678 11.9672C13.2339 11.9893 13.189 12.0009 13.1651 12.0326C13.1613 12.0326 13.1575 12.0326 13.1537 12.0326C13.1386 12.0435 13.1113 12.0429 13.1081 12.0652C13.1043 12.0652 13.1005 12.0652 13.0967 12.0652C13.0815 12.0762 13.0542 12.0755 13.0511 12.0979C13.0354 12.0975 13.026 12.1031 13.0168 12.1088C12.9829 12.131 12.9381 12.1426 12.9142 12.1742C12.9104 12.1742 12.9066 12.1742 12.9028 12.1742C12.8876 12.1852 12.8603 12.1845 12.8571 12.2069C12.8533 12.2069 12.8495 12.2069 12.8457 12.2069C12.8305 12.2179 12.8033 12.2172 12.8001 12.2396C12.7963 12.2396 12.7925 12.2396 12.7887 12.2396C12.7453 12.2636 12.6945 12.2805 12.6632 12.3159C12.6594 12.3159 12.6556 12.3159 12.6518 12.3159C12.6366 12.3269 12.6093 12.3262 12.6061 12.3486C12.6023 12.3486 12.5985 12.3486 12.5947 12.3486C12.5796 12.3596 12.5523 12.3589 12.5491 12.3813C12.5453 12.3813 12.5415 12.3813 12.5377 12.3813C12.5162 12.3971 12.4784 12.3973 12.4692 12.4249C12.4654 12.4249 12.4616 12.4249 12.4578 12.4249C12.4427 12.4359 12.4154 12.4352 12.4122 12.4576C12.4084 12.4576 12.4046 12.4576 12.4008 12.4576C12.3856 12.4686 12.3583 12.4679 12.3551 12.4903C12.3513 12.4903 12.3475 12.4903 12.3437 12.4903C12.3286 12.5013 12.3013 12.5006 12.2981 12.523C12.2943 12.523 12.2905 12.523 12.2867 12.523C12.2652 12.5388 12.2274 12.539 12.2182 12.5666C12.2144 12.5666 12.2106 12.5666 12.2068 12.5666C12.1917 12.5775 12.1644 12.5769 12.1612 12.5993C12.1574 12.5993 12.1536 12.5993 12.1498 12.5993C12.1346 12.6102 12.1073 12.6096 12.1042 12.632C12.1003 12.632 12.0966 12.632 12.0927 12.632C12.0776 12.6429 12.0503 12.6423 12.0471 12.6647C12.0433 12.6647 12.0395 12.6647 12.0357 12.6647C12.0142 12.6805 11.9764 12.6807 11.9673 12.7083C11.9634 12.7083 11.9597 12.7083 11.9558 12.7083C11.9407 12.7192 11.9134 12.7186 11.9102 12.741C11.9064 12.741 11.9026 12.741 11.8988 12.741C11.8836 12.7519 11.8564 12.7513 11.8532 12.7737C11.8494 12.7737 11.8456 12.7737 11.8418 12.7737C11.8266 12.7846 11.7993 12.784 11.7961 12.8064C11.7923 12.8064 11.7885 12.8064 11.7847 12.8064C11.7696 12.8173 11.7423 12.8167 11.7391 12.8391C11.7234 12.8386 11.714 12.8442 11.7049 12.85C11.671 12.8721 11.6261 12.8837 11.6022 12.9154C11.5984 12.9154 11.5946 12.9154 11.5908 12.9154C11.5756 12.9263 11.5483 12.9257 11.5451 12.9481C11.5413 12.9481 11.5375 12.9481 11.5337 12.9481C11.5186 12.959 11.4913 12.9584 11.4881 12.9808C11.4724 12.9803 11.4631 12.9859 11.4539 12.9917C11.42 13.0138 11.3751 13.0254 11.3512 13.0571C11.3474 13.0571 11.3436 13.0571 11.3398 13.0571C11.3246 13.068 11.2973 13.0674 11.2942 13.0898C11.2904 13.0898 11.2865 13.0898 11.2827 13.0898C11.2676 13.1007 11.2403 13.1001 11.2371 13.1225C11.2333 13.1225 11.2295 13.1225 11.2257 13.1225C11.1823 13.1464 11.1316 13.1633 11.1002 13.1988C11.0964 13.1988 11.0926 13.1988 11.0888 13.1988C11.0736 13.2097 11.0463 13.2091 11.0432 13.2314C11.0394 13.2314 11.0356 13.2314 11.0318 13.2314C11.0166 13.2424 10.9893 13.2417 10.9861 13.2641C10.9823 13.2641 10.9785 13.2641 10.9747 13.2641C10.9532 13.28 10.9154 13.2802 10.9063 13.3077C10.9025 13.3077 10.8987 13.3077 10.8949 13.3077C10.8797 13.3187 10.8524 13.318 10.8492 13.3404C10.8454 13.3404 10.8416 13.3404 10.8378 13.3404C10.8227 13.3514 10.7954 13.3507 10.7922 13.3731C10.7884 13.3731 10.7846 13.3731 10.7808 13.3731C10.7656 13.3841 10.7383 13.3834 10.7351 13.4058C10.7313 13.4058 10.7275 13.4058 10.7237 13.4058C10.7022 13.4216 10.6644 13.4219 10.6553 13.4494C10.6515 13.4494 10.6477 13.4494 10.6439 13.4494C10.6287 13.4604 10.6014 13.4597 10.5982 13.4821C10.5944 13.4821 10.5906 13.4821 10.5868 13.4821C10.5717 13.4931 10.5444 13.4924 10.5412 13.5148C10.5374 13.5148 10.5336 13.5148 10.5298 13.5148C10.5146 13.5258 10.4873 13.5251 10.4841 13.5475C10.4804 13.5475 10.4765 13.5475 10.4727 13.5475C10.4512 13.5633 10.4135 13.5635 10.4043 13.5911C10.4005 13.5911 10.3967 13.5911 10.3929 13.5911C10.3777 13.6021 10.3504 13.6014 10.3472 13.6238C10.3434 13.6238 10.3396 13.6238 10.3358 13.6238C10.3207 13.6348 10.2934 13.6341 10.2902 13.6565C10.2864 13.6565 10.2826 13.6565 10.2788 13.6565C10.2636 13.6675 10.2363 13.6668 10.2332 13.6892C10.2294 13.6892 10.2256 13.6892 10.2218 13.6892C10.2066 13.7002 10.1793 13.6995 10.1761 13.7219C10.1604 13.7214 10.1511 13.727 10.1419 13.7328C10.1267 13.7437 10.0994 13.7431 10.0963 13.7655C10.0925 13.7655 10.0887 13.7655 10.0849 13.7655C10.0697 13.7764 10.0424 13.7758 10.0392 13.7982C10.0354 13.7982 10.0316 13.7982 10.0278 13.7982C10.0126 13.8091 9.98536 13.8085 9.98218 13.8309C9.97838 13.8309 9.97457 13.8309 9.97077 13.8309C9.95561 13.8418 9.92832 13.8412 9.92513 13.8636C9.90942 13.8631 9.90009 13.8687 9.89091 13.8745C9.85701 13.8966 9.81212 13.9082 9.78823 13.9399C9.78443 13.9399 9.78062 13.9399 9.77682 13.9399C9.76166 13.9508 9.73437 13.9502 9.73119 13.9726C9.72739 13.9726 9.72358 13.9726 9.71978 13.9726C9.70462 13.9835 9.67733 13.9829 9.67415 14.0053C9.65844 14.0048 9.6491 14.0104 9.63992 14.0162C9.60603 14.0383 9.56113 14.0499 9.53724 14.0816C9.53345 14.0816 9.52963 14.0816 9.52584 14.0816C9.51067 14.0925 9.48338 14.0919 9.4802 14.1143C9.4764 14.1143 9.47259 14.1143 9.46879 14.1143C9.45363 14.1252 9.42634 14.1246 9.42316 14.147C9.41936 14.147 9.41555 14.147 9.41175 14.147C9.36836 14.1709 9.31761 14.1878 9.28626 14.2233C9.28246 14.2233 9.27865 14.2233 9.27485 14.2233C9.25969 14.2342 9.2324 14.2336 9.22921 14.256C9.22542 14.256 9.22161 14.256 9.21781 14.256C9.20264 14.2669 9.17536 14.2663 9.17217 14.2887C9.16837 14.2887 9.16456 14.2887 9.16076 14.2887C9.13927 14.3045 9.10149 14.3047 9.09231 14.3323C9.08851 14.3323 9.0847 14.3323 9.0809 14.3323C9.06574 14.3432 9.03845 14.3426 9.03527 14.365C9.03147 14.365 9.02766 14.365 9.02386 14.365C9.0087 14.3759 8.98141 14.3753 8.97823 14.3976C8.97443 14.3976 8.97062 14.3976 8.96682 14.3976C8.95166 14.4086 8.92437 14.4079 8.92119 14.4303C8.91739 14.4303 8.91358 14.4303 8.90978 14.4303C8.88828 14.4462 8.8505 14.4464 8.84133 14.4739C8.83753 14.4739 8.83372 14.4739 8.82992 14.4739C8.81476 14.4849 8.78747 14.4842 8.78428 14.5066C8.78048 14.5066 8.77667 14.5066 8.77287 14.5066C8.75771 14.5176 8.73042 14.5169 8.72724 14.5393C8.72344 14.5393 8.71963 14.5393 8.71583 14.5393C8.70067 14.5503 8.67338 14.5496 8.6702 14.572C8.6664 14.572 8.66259 14.572 8.65879 14.572C8.64363 14.583 8.61634 14.5823 8.61316 14.6047C8.59745 14.6043 8.58811 14.6099 8.57893 14.6156C8.56377 14.6266 8.53648 14.6259 8.5333 14.6483C8.5295 14.6483 8.52569 14.6483 8.52189 14.6483C8.50673 14.6593 8.47944 14.6586 8.47625 14.681C8.47245 14.681 8.46864 14.681 8.46485 14.681C8.44968 14.692 8.42239 14.6913 8.41921 14.7137C8.41541 14.7137 8.4116 14.7137 8.4078 14.7137C8.39264 14.7247 8.36535 14.724 8.36217 14.7464C8.34646 14.746 8.33713 14.7516 8.32794 14.7573C8.29405 14.7794 8.24916 14.791 8.22527 14.8227C8.22147 14.8227 8.21766 14.8227 8.21386 14.8227C8.1987 14.8337 8.17141 14.833 8.16822 14.8554C8.16443 14.8554 8.16061 14.8554 8.15682 14.8554C8.14165 14.8664 8.11436 14.8657 8.11118 14.8881C8.09547 14.8876 8.08614 14.8932 8.07696 14.899C8.04306 14.9211 7.99817 14.9327 7.97428 14.9644C7.97048 14.9644 7.96667 14.9644 7.96287 14.9644C7.94771 14.9753 7.92042 14.9747 7.91724 14.9971C7.91344 14.9971 7.90963 14.9971 7.90583 14.9971C7.89067 15.008 7.86338 15.0074 7.86019 15.0298C7.8564 15.0298 7.85259 15.0298 7.84879 15.0298C7.8054 15.0537 7.75464 15.0706 7.72329 15.1061C7.71949 15.1061 7.71568 15.1061 7.71188 15.1061C7.69672 15.117 7.66943 15.1164 7.66625 15.1388C7.66245 15.1388 7.65864 15.1388 7.65484 15.1388C7.63968 15.1497 7.61239 15.1491 7.60921 15.1715C7.60541 15.1715 7.6016 15.1715 7.5978 15.1715C7.57631 15.1873 7.53852 15.1875 7.52935 15.2151C7.52555 15.2151 7.52174 15.2151 7.51794 15.2151C7.50278 15.226 7.47549 15.2254 7.47231 15.2478C7.46851 15.2478 7.4647 15.2478 7.4609 15.2478C7.44574 15.2587 7.41845 15.2581 7.41526 15.2805C7.41146 15.2805 7.40765 15.2805 7.40385 15.2805C7.38869 15.2914 7.3614 15.2908 7.35822 15.3132C7.35442 15.3132 7.35061 15.3132 7.34681 15.3132C7.32532 15.329 7.28753 15.3292 7.27836 15.3568C7.27456 15.3568 7.27075 15.3568 7.26695 15.3568C7.25179 15.3677 7.2245 15.3671 7.22132 15.3895C7.21371 15.3895 7.20611 15.3895 7.1985 15.3895C7.14536 13.0475 7.19084 10.6228 7.17568 8.26147C9.56556 9.28457 11.9359 10.3258 14.3174 11.3568Z" fill="#141414"/>
</svg>
