<svg width="108" height="32" viewBox="0 0 108 32" fill="none" xmlns="http://www.w3.org/2000/svg">
<path d="M54.5092 17.4009C52.6276 17.4009 51.094 18.8321 51.094 20.8033C51.094 22.7625 52.6276 24.2057 54.5092 24.2057C56.3916 24.2057 57.9252 22.7625 57.9252 20.8033C57.9244 18.8321 56.3908 17.4009 54.5092 17.4009ZM54.5092 22.8665C53.478 22.8665 52.5892 22.0161 52.5892 20.8041C52.5892 19.5793 53.4788 18.7417 54.5092 18.7417C55.5404 18.7417 56.4292 19.5793 56.4292 20.8041C56.4292 22.0153 55.5404 22.8665 54.5092 22.8665ZM47.058 17.4009C45.1764 17.4009 43.6428 18.8321 43.6428 20.8033C43.6428 22.7625 45.1764 24.2057 47.058 24.2057C48.9404 24.2057 50.474 22.7625 50.474 20.8033C50.474 18.8321 48.9404 17.4009 47.058 17.4009ZM47.058 22.8665C46.0268 22.8665 45.138 22.0161 45.138 20.8041C45.138 19.5793 46.0276 18.7417 47.058 18.7417C48.0892 18.7417 48.978 19.5793 48.978 20.8041C48.9788 22.0153 48.0892 22.8665 47.058 22.8665ZM38.1956 18.4457V19.8889H41.65C41.5468 20.7009 41.2764 21.2937 40.8636 21.7057C40.3612 22.2081 39.5748 22.7625 38.1956 22.7625C36.0692 22.7625 34.4068 21.0481 34.4068 18.9217C34.4068 16.7953 36.0692 15.0809 38.1956 15.0809C39.3428 15.0809 40.1804 15.5321 40.7988 16.1121L41.8172 15.0937C40.9532 14.2689 39.8068 13.6377 38.1956 13.6377C35.2828 13.6377 32.834 16.0089 32.834 18.9217C32.834 21.8345 35.2828 24.2057 38.1956 24.2057C39.7676 24.2057 40.954 23.6897 41.8812 22.7233C42.8348 21.7697 43.1316 20.4289 43.1316 19.3465C43.1316 19.0121 43.106 18.7025 43.054 18.4449H38.1956V18.4457ZM74.442 19.5665C74.1588 18.8065 73.2948 17.4009 71.5292 17.4009C69.7764 17.4009 68.3196 18.7801 68.3196 20.8033C68.3196 22.7105 69.7636 24.2057 71.6964 24.2057C73.2556 24.2057 74.158 23.2521 74.5324 22.6977L73.3724 21.9241C72.986 22.4913 72.4572 22.8649 71.6964 22.8649C70.9364 22.8649 70.3948 22.5169 70.0468 21.8337L74.5964 19.9521L74.442 19.5665ZM69.802 20.7009C69.7636 19.3857 70.8204 18.7161 71.5812 18.7161C72.174 18.7161 72.6764 19.0129 72.8444 19.4377L69.802 20.7009ZM66.1036 24.0001H67.598V13.9993H66.1036V24.0001ZM63.654 18.1617H63.6028C63.2676 17.7617 62.6228 17.4009 61.8116 17.4009C60.11 17.4009 58.5508 18.8961 58.5508 20.8169C58.5508 22.7241 60.11 24.2065 61.8116 24.2065C62.6236 24.2065 63.2676 23.8457 63.6028 23.4337H63.654V23.9233C63.654 25.2249 62.958 25.9209 61.8372 25.9209C60.922 25.9209 60.3548 25.2641 60.1228 24.7097L58.8212 25.2513C59.1948 26.1529 60.1868 27.2617 61.8372 27.2617C63.59 27.2617 65.0724 26.2305 65.0724 23.7169V17.6081H63.6548V18.1617H63.654ZM61.9404 22.8665C60.9092 22.8665 60.046 22.0025 60.046 20.8169C60.046 19.6177 60.9092 18.7417 61.9404 18.7417C62.958 18.7417 63.7572 19.6177 63.7572 20.8169C63.7572 22.0025 62.958 22.8665 61.9404 22.8665ZM81.4452 13.9993H77.8684V24.0001H79.3604V20.2113H81.4444C83.0988 20.2113 84.726 19.0137 84.726 17.1057C84.726 15.1977 83.0996 13.9993 81.4452 13.9993ZM81.4836 18.8193H79.3604V15.3913H81.4836C82.5996 15.3913 83.2332 16.3153 83.2332 17.1057C83.2332 17.8801 82.5996 18.8193 81.4836 18.8193ZM90.7092 17.3833C89.6284 17.3833 88.5092 17.8593 88.046 18.9145L89.3708 19.4673C89.654 18.9145 90.182 18.7337 90.7348 18.7337C91.5068 18.7337 92.2916 19.1969 92.3044 20.0201V20.1233C92.034 19.9689 91.4548 19.7377 90.7476 19.7377C89.3196 19.7377 87.8652 20.5225 87.8652 21.9889C87.8652 23.3273 89.0364 24.1889 90.3484 24.1889C91.3516 24.1889 91.9052 23.7385 92.2524 23.2105H92.3036V23.9825H93.7452V20.1481C93.746 18.3737 92.4196 17.3833 90.7092 17.3833ZM90.5284 22.8641C90.0404 22.8641 89.358 22.6193 89.358 22.0145C89.358 21.2425 90.2076 20.9465 90.9412 20.9465C91.5964 20.9465 91.906 21.0881 92.3044 21.2809C92.1884 22.2081 91.3908 22.8641 90.5284 22.8641ZM98.9948 17.6017L97.2836 21.9377H97.2324L95.4564 17.6017H93.8484L96.5116 23.6617L94.9932 27.0329H96.55L100.655 17.6017H98.9948ZM85.55 24.0001H87.042V13.9993H85.55V24.0001Z" fill="#78909C"/>
<path d="M37.9348 8.19431C37.9348 8.86471 37.7364 9.39831 37.3388 9.79671C36.8876 10.2703 36.2988 10.5071 35.5756 10.5071C34.8828 10.5071 34.2932 10.2671 33.8092 9.78711C33.3244 9.3063 33.082 8.71111 33.082 8.00071C33.082 7.28951 33.3244 6.69431 33.8092 6.21431C34.2932 5.73351 34.8828 5.49351 35.5756 5.49351C35.9196 5.49351 36.2484 5.56071 36.5604 5.69431C36.8732 5.82871 37.1236 6.00711 37.3108 6.23031L36.8892 6.65271C36.5716 6.27271 36.134 6.08311 35.5748 6.08311C35.0692 6.08311 34.6324 6.26071 34.2636 6.61591C33.8948 6.97111 33.7108 7.43271 33.7108 7.99991C33.7108 8.56711 33.8948 9.02871 34.2636 9.38391C34.6324 9.73911 35.0692 9.91671 35.5748 9.91671C36.1108 9.91671 36.558 9.73831 36.9156 9.38071C37.1476 9.14791 37.282 8.82391 37.318 8.40871H35.5748V7.83191H37.9004C37.9244 7.95751 37.9348 8.07831 37.9348 8.19431Z" fill="#78909C"/>
<path d="M41.6229 6.18955H39.4373V7.71115H41.4085V8.28795H39.4373V9.80955H41.6229V10.4H38.8205V5.59995H41.6229V6.18955Z" fill="#78909C"/>
<path d="M44.2236 10.4H43.6068V6.18955H42.266V5.59995H45.5644V6.18955H44.2236V10.4Z" fill="#78909C"/>
<path d="M47.9508 10.4V5.59995H48.5676V10.4H47.9508Z" fill="#78909C"/>
<path d="M51.3029 10.4H50.6861V6.18955H49.3453V5.59995H52.6437V6.18955H51.3029V10.4Z" fill="#78909C"/>
<path d="M58.8875 9.77994C58.4155 10.2647 57.8291 10.5071 57.1275 10.5071C56.4259 10.5071 55.8395 10.2647 55.3683 9.77994C54.8963 9.29514 54.6611 8.70154 54.6611 7.99994C54.6611 7.29834 54.8963 6.70474 55.3683 6.21994C55.8395 5.73514 56.4259 5.49194 57.1275 5.49194C57.8251 5.49194 58.4107 5.73594 58.8843 6.22314C59.3579 6.71034 59.5947 7.30234 59.5947 7.99994C59.5947 8.70154 59.3587 9.29514 58.8875 9.77994ZM55.8235 9.37754C56.1787 9.73754 56.6131 9.91674 57.1275 9.91674C57.6419 9.91674 58.0771 9.73674 58.4315 9.37754C58.7867 9.01754 58.9651 8.55834 58.9651 7.99994C58.9651 7.44154 58.7867 6.98234 58.4315 6.62234C58.0771 6.26234 57.6419 6.08314 57.1275 6.08314C56.6131 6.08314 56.1787 6.26314 55.8235 6.62234C55.4691 6.98234 55.2907 7.44154 55.2907 7.99994C55.2907 8.55834 55.4691 9.01754 55.8235 9.37754Z" fill="#78909C"/>
<path d="M60.4603 10.4V5.59995H61.2108L63.5436 9.33355H63.5699L63.5436 8.40875V5.59995H64.1603V10.4H63.5163L61.0756 6.48475H61.0491L61.0756 7.40955V10.4H60.4603Z" fill="#78909C"/>
<path d="M37.9348 8.19431C37.9348 8.86471 37.7364 9.39831 37.3388 9.79671C36.8876 10.2703 36.2988 10.5071 35.5756 10.5071C34.8828 10.5071 34.2932 10.2671 33.8092 9.78711C33.3244 9.3063 33.082 8.71111 33.082 8.00071C33.082 7.28951 33.3244 6.69431 33.8092 6.21431C34.2932 5.73351 34.8828 5.49351 35.5756 5.49351C35.9196 5.49351 36.2484 5.56071 36.5604 5.69431C36.8732 5.82871 37.1236 6.00711 37.3108 6.23031L36.8892 6.65271C36.5716 6.27271 36.134 6.08311 35.5748 6.08311C35.0692 6.08311 34.6324 6.26071 34.2636 6.61591C33.8948 6.97111 33.7108 7.43271 33.7108 7.99991C33.7108 8.56711 33.8948 9.02871 34.2636 9.38391C34.6324 9.73911 35.0692 9.91671 35.5748 9.91671C36.1108 9.91671 36.558 9.73831 36.9156 9.38071C37.1476 9.14791 37.282 8.82391 37.318 8.40871H35.5748V7.83191H37.9004C37.9244 7.95751 37.9348 8.07831 37.9348 8.19431Z" stroke="#78909C" stroke-width="0.2" stroke-miterlimit="10"/>
<path d="M41.6229 6.18955H39.4373V7.71115H41.4085V8.28795H39.4373V9.80955H41.6229V10.4H38.8205V5.59995H41.6229V6.18955Z" stroke="#78909C" stroke-width="0.2" stroke-miterlimit="10"/>
<path d="M44.2236 10.4H43.6068V6.18955H42.266V5.59995H45.5644V6.18955H44.2236V10.4Z" stroke="#78909C" stroke-width="0.2" stroke-miterlimit="10"/>
<path d="M47.9508 10.4V5.59995H48.5676V10.4H47.9508Z" stroke="#78909C" stroke-width="0.2" stroke-miterlimit="10"/>
<path d="M51.3029 10.4H50.6861V6.18955H49.3453V5.59995H52.6437V6.18955H51.3029V10.4Z" stroke="#78909C" stroke-width="0.2" stroke-miterlimit="10"/>
<path d="M58.8875 9.77994C58.4155 10.2647 57.8291 10.5071 57.1275 10.5071C56.4259 10.5071 55.8395 10.2647 55.3683 9.77994C54.8963 9.29514 54.6611 8.70154 54.6611 7.99994C54.6611 7.29834 54.8963 6.70474 55.3683 6.21994C55.8395 5.73514 56.4259 5.49194 57.1275 5.49194C57.8251 5.49194 58.4107 5.73594 58.8843 6.22314C59.3579 6.71034 59.5947 7.30234 59.5947 7.99994C59.5947 8.70154 59.3587 9.29514 58.8875 9.77994ZM55.8235 9.37754C56.1787 9.73754 56.6131 9.91674 57.1275 9.91674C57.6419 9.91674 58.0771 9.73674 58.4315 9.37754C58.7867 9.01754 58.9651 8.55834 58.9651 7.99994C58.9651 7.44154 58.7867 6.98234 58.4315 6.62234C58.0771 6.26234 57.6419 6.08314 57.1275 6.08314C56.6131 6.08314 56.1787 6.26314 55.8235 6.62234C55.4691 6.98234 55.2907 7.44154 55.2907 7.99994C55.2907 8.55834 55.4691 9.01754 55.8235 9.37754Z" stroke="#78909C" stroke-width="0.2" stroke-miterlimit="10"/>
<path d="M60.4603 10.4V5.59995H61.2108L63.5436 9.33355H63.5699L63.5436 8.40875V5.59995H64.1603V10.4H63.5163L61.0756 6.48475H61.0491L61.0756 7.40955V10.4H60.4603Z" stroke="#78909C" stroke-width="0.2" stroke-miterlimit="10"/>
<path fill-rule="evenodd" clip-rule="evenodd" d="M8.08498 6.4744C8.01602 6.66813 7.97852 6.89591 7.97852 7.15442V24.8472C7.97852 25.1063 8.01606 25.3342 8.08511 25.5279L17.6111 16.0005L8.08498 6.4744ZM8.78505 26.2422C9.12628 26.3459 9.55153 26.2816 10.0113 26.0208L21.2468 19.6362L18.3182 16.7076L8.78505 26.2422ZM22.1491 19.1243L25.6121 17.1568C26.7297 16.5208 26.7297 15.4816 25.6121 14.8464L22.1475 12.8778L19.0253 16.0005L22.1491 19.1243ZM21.2458 12.3654L10.0113 5.98163C9.55148 5.72032 9.12619 5.65623 8.78493 5.76014L18.3182 15.2934L21.2458 12.3654Z" fill="#78909C"/>
<path d="M5 1H103V-1H5V1ZM107 5V27H109V5H107ZM103 31H5V33H103V31ZM1 27V5H-1V27H1ZM5 31C2.79086 31 1 29.2091 1 27H-1C-1 30.3137 1.68629 33 5 33V31ZM107 27C107 29.2091 105.209 31 103 31V33C106.314 33 109 30.3137 109 27H107ZM103 1C105.209 1 107 2.79086 107 5H109C109 1.68629 106.314 -1 103 -1V1ZM5 -1C1.68629 -1 -1 1.68629 -1 5H1C1 2.79086 2.79086 1 5 1V-1Z" fill="#78909C"/>
</svg>
