<svg width="108" height="32" viewBox="0 0 108 32" fill="none" xmlns="http://www.w3.org/2000/svg">
<path d="M0 5C0 2.23858 2.23858 0 5 0H103C105.761 0 108 2.23858 108 5V27C108 29.7614 105.761 32 103 32H5C2.23858 32 0 29.7614 0 27V5Z" fill="#78909C"/>
<path d="M54.5087 17.4009C52.6271 17.4009 51.0935 18.8321 51.0935 20.8033C51.0935 22.7625 52.6271 24.2057 54.5087 24.2057C56.3911 24.2057 57.9247 22.7625 57.9247 20.8033C57.9239 18.8321 56.3903 17.4009 54.5087 17.4009ZM54.5087 22.8665C53.4775 22.8665 52.5887 22.0161 52.5887 20.8041C52.5887 19.5793 53.4783 18.7417 54.5087 18.7417C55.5399 18.7417 56.4287 19.5793 56.4287 20.8041C56.4287 22.0153 55.5399 22.8665 54.5087 22.8665ZM47.0575 17.4009C45.1759 17.4009 43.6423 18.8321 43.6423 20.8033C43.6423 22.7625 45.1759 24.2057 47.0575 24.2057C48.9399 24.2057 50.4735 22.7625 50.4735 20.8033C50.4735 18.8321 48.9399 17.4009 47.0575 17.4009ZM47.0575 22.8665C46.0263 22.8665 45.1375 22.0161 45.1375 20.8041C45.1375 19.5793 46.0271 18.7417 47.0575 18.7417C48.0887 18.7417 48.9775 19.5793 48.9775 20.8041C48.9783 22.0153 48.0887 22.8665 47.0575 22.8665ZM38.1951 18.4457V19.8889H41.6495C41.5463 20.7009 41.2759 21.2937 40.8631 21.7057C40.3607 22.2081 39.5743 22.7625 38.1951 22.7625C36.0687 22.7625 34.4063 21.0481 34.4063 18.9217C34.4063 16.7953 36.0687 15.0809 38.1951 15.0809C39.3423 15.0809 40.1799 15.5321 40.7983 16.1121L41.8167 15.0937C40.9527 14.2689 39.8063 13.6377 38.1951 13.6377C35.2823 13.6377 32.8335 16.0089 32.8335 18.9217C32.8335 21.8345 35.2823 24.2057 38.1951 24.2057C39.7671 24.2057 40.9535 23.6897 41.8807 22.7233C42.8343 21.7697 43.1311 20.4289 43.1311 19.3465C43.1311 19.0121 43.1055 18.7025 43.0535 18.4449H38.1951V18.4457ZM74.4415 19.5665C74.1583 18.8065 73.2943 17.4009 71.5287 17.4009C69.7759 17.4009 68.3191 18.7801 68.3191 20.8033C68.3191 22.7105 69.7631 24.2057 71.6959 24.2057C73.2551 24.2057 74.1575 23.2521 74.5319 22.6977L73.3719 21.9241C72.9855 22.4913 72.4567 22.8649 71.6959 22.8649C70.9359 22.8649 70.3943 22.5169 70.0463 21.8337L74.5959 19.9521L74.4415 19.5665ZM69.8015 20.7009C69.7631 19.3857 70.8199 18.7161 71.5807 18.7161C72.1735 18.7161 72.6759 19.0129 72.8439 19.4377L69.8015 20.7009ZM66.1031 24.0001H67.5975V13.9993H66.1031V24.0001ZM63.6535 18.1617H63.6023C63.2671 17.7617 62.6223 17.4009 61.8111 17.4009C60.1095 17.4009 58.5503 18.8961 58.5503 20.8169C58.5503 22.7241 60.1095 24.2065 61.8111 24.2065C62.6231 24.2065 63.2671 23.8457 63.6023 23.4337H63.6535V23.9233C63.6535 25.2249 62.9575 25.9209 61.8367 25.9209C60.9215 25.9209 60.3543 25.2641 60.1223 24.7097L58.8207 25.2513C59.1943 26.1529 60.1863 27.2617 61.8367 27.2617C63.5895 27.2617 65.0719 26.2305 65.0719 23.7169V17.6081H63.6543V18.1617H63.6535ZM61.9399 22.8665C60.9087 22.8665 60.0455 22.0025 60.0455 20.8169C60.0455 19.6177 60.9087 18.7417 61.9399 18.7417C62.9575 18.7417 63.7567 19.6177 63.7567 20.8169C63.7567 22.0025 62.9575 22.8665 61.9399 22.8665ZM81.4447 13.9993H77.8679V24.0001H79.3599V20.2113H81.4439C83.0983 20.2113 84.7255 19.0137 84.7255 17.1057C84.7255 15.1977 83.0991 13.9993 81.4447 13.9993ZM81.4831 18.8193H79.3599V15.3913H81.4831C82.5991 15.3913 83.2327 16.3153 83.2327 17.1057C83.2327 17.8801 82.5991 18.8193 81.4831 18.8193ZM90.7087 17.3833C89.6279 17.3833 88.5087 17.8593 88.0455 18.9145L89.3703 19.4673C89.6535 18.9145 90.1815 18.7337 90.7343 18.7337C91.5063 18.7337 92.2911 19.1969 92.3039 20.0201V20.1233C92.0335 19.9689 91.4543 19.7377 90.7471 19.7377C89.3191 19.7377 87.8647 20.5225 87.8647 21.9889C87.8647 23.3273 89.0359 24.1889 90.3479 24.1889C91.3511 24.1889 91.9047 23.7385 92.2519 23.2105H92.3031V23.9825H93.7447V20.1481C93.7455 18.3737 92.4191 17.3833 90.7087 17.3833ZM90.5279 22.8641C90.0399 22.8641 89.3575 22.6193 89.3575 22.0145C89.3575 21.2425 90.2071 20.9465 90.9407 20.9465C91.5959 20.9465 91.9055 21.0881 92.3039 21.2809C92.1879 22.2081 91.3903 22.8641 90.5279 22.8641ZM98.9943 17.6017L97.2831 21.9377H97.2319L95.4559 17.6017H93.8479L96.5111 23.6617L94.9927 27.0329H96.5495L100.654 17.6017H98.9943ZM85.5495 24.0001H87.0415V13.9993H85.5495V24.0001Z" fill="white"/>
<path d="M37.9343 8.19437C37.9343 8.86477 37.7359 9.39837 37.3383 9.79677C36.8871 10.2704 36.2983 10.5072 35.5751 10.5072C34.8823 10.5072 34.2927 10.2672 33.8087 9.78717C33.3239 9.30637 33.0815 8.71117 33.0815 8.00077C33.0815 7.28957 33.3239 6.69437 33.8087 6.21437C34.2927 5.73357 34.8823 5.49357 35.5751 5.49357C35.9191 5.49357 36.2479 5.56077 36.5599 5.69437C36.8727 5.82877 37.1231 6.00717 37.3103 6.23037L36.8887 6.65277C36.5711 6.27277 36.1335 6.08317 35.5743 6.08317C35.0687 6.08317 34.6319 6.26077 34.2631 6.61597C33.8943 6.97117 33.7103 7.43277 33.7103 7.99997C33.7103 8.56717 33.8943 9.02877 34.2631 9.38397C34.6319 9.73917 35.0687 9.91677 35.5743 9.91677C36.1103 9.91677 36.5575 9.73837 36.9151 9.38077C37.1471 9.14797 37.2815 8.82397 37.3175 8.40877H35.5743V7.83197H37.8999C37.9239 7.95757 37.9343 8.07837 37.9343 8.19437Z" fill="white"/>
<path d="M41.6224 6.18961H39.4368V7.71121H41.408V8.28801H39.4368V9.80961H41.6224V10.4H38.82V5.60001H41.6224V6.18961Z" fill="white"/>
<path d="M44.2231 10.4H43.6063V6.18961H42.2655V5.60001H45.5639V6.18961H44.2231V10.4Z" fill="white"/>
<path d="M47.9503 10.4V5.60001H48.5671V10.4H47.9503Z" fill="white"/>
<path d="M51.3024 10.4H50.6856V6.18961H49.3448V5.60001H52.6432V6.18961H51.3024V10.4Z" fill="white"/>
<path d="M58.887 9.78C58.415 10.2648 57.8286 10.5072 57.127 10.5072C56.4254 10.5072 55.839 10.2648 55.3678 9.78C54.8958 9.2952 54.6606 8.7016 54.6606 8C54.6606 7.2984 54.8958 6.7048 55.3678 6.22C55.839 5.7352 56.4254 5.492 57.127 5.492C57.8246 5.492 58.4102 5.736 58.8838 6.2232C59.3574 6.7104 59.5942 7.3024 59.5942 8C59.5942 8.7016 59.3582 9.2952 58.887 9.78ZM55.823 9.3776C56.1782 9.7376 56.6126 9.9168 57.127 9.9168C57.6414 9.9168 58.0766 9.7368 58.431 9.3776C58.7862 9.0176 58.9646 8.5584 58.9646 8C58.9646 7.4416 58.7862 6.9824 58.431 6.6224C58.0766 6.2624 57.6414 6.0832 57.127 6.0832C56.6126 6.0832 56.1782 6.2632 55.823 6.6224C55.4686 6.9824 55.2902 7.4416 55.2902 8C55.2902 8.5584 55.4686 9.0176 55.823 9.3776Z" fill="white"/>
<path d="M60.4599 10.4V5.60001H61.2103L63.5431 9.33361H63.5695L63.5431 8.40881V5.60001H64.1599V10.4H63.5159L61.0751 6.48481H61.0487L61.0751 7.40961V10.4H60.4599Z" fill="white"/>
<path d="M37.9343 8.19437C37.9343 8.86477 37.7359 9.39837 37.3383 9.79677C36.8871 10.2704 36.2983 10.5072 35.5751 10.5072C34.8823 10.5072 34.2927 10.2672 33.8087 9.78717C33.3239 9.30637 33.0815 8.71117 33.0815 8.00077C33.0815 7.28957 33.3239 6.69437 33.8087 6.21437C34.2927 5.73357 34.8823 5.49357 35.5751 5.49357C35.9191 5.49357 36.2479 5.56077 36.5599 5.69437C36.8727 5.82877 37.1231 6.00717 37.3103 6.23037L36.8887 6.65277C36.5711 6.27277 36.1335 6.08317 35.5743 6.08317C35.0687 6.08317 34.6319 6.26077 34.2631 6.61597C33.8943 6.97117 33.7103 7.43277 33.7103 7.99997C33.7103 8.56717 33.8943 9.02877 34.2631 9.38397C34.6319 9.73917 35.0687 9.91677 35.5743 9.91677C36.1103 9.91677 36.5575 9.73837 36.9151 9.38077C37.1471 9.14797 37.2815 8.82397 37.3175 8.40877H35.5743V7.83197H37.8999C37.9239 7.95757 37.9343 8.07837 37.9343 8.19437Z" stroke="white" stroke-width="0.2" stroke-miterlimit="10"/>
<path d="M41.6224 6.18961H39.4368V7.71121H41.408V8.28801H39.4368V9.80961H41.6224V10.4H38.82V5.60001H41.6224V6.18961Z" stroke="white" stroke-width="0.2" stroke-miterlimit="10"/>
<path d="M44.2231 10.4H43.6063V6.18961H42.2655V5.60001H45.5639V6.18961H44.2231V10.4Z" stroke="white" stroke-width="0.2" stroke-miterlimit="10"/>
<path d="M47.9503 10.4V5.60001H48.5671V10.4H47.9503Z" stroke="white" stroke-width="0.2" stroke-miterlimit="10"/>
<path d="M51.3024 10.4H50.6856V6.18961H49.3448V5.60001H52.6432V6.18961H51.3024V10.4Z" stroke="white" stroke-width="0.2" stroke-miterlimit="10"/>
<path d="M58.887 9.78C58.415 10.2648 57.8286 10.5072 57.127 10.5072C56.4254 10.5072 55.839 10.2648 55.3678 9.78C54.8958 9.2952 54.6606 8.7016 54.6606 8C54.6606 7.2984 54.8958 6.7048 55.3678 6.22C55.839 5.7352 56.4254 5.492 57.127 5.492C57.8246 5.492 58.4102 5.736 58.8838 6.2232C59.3574 6.7104 59.5942 7.3024 59.5942 8C59.5942 8.7016 59.3582 9.2952 58.887 9.78ZM55.823 9.3776C56.1782 9.7376 56.6126 9.9168 57.127 9.9168C57.6414 9.9168 58.0766 9.7368 58.431 9.3776C58.7862 9.0176 58.9646 8.5584 58.9646 8C58.9646 7.4416 58.7862 6.9824 58.431 6.6224C58.0766 6.2624 57.6414 6.0832 57.127 6.0832C56.6126 6.0832 56.1782 6.2632 55.823 6.6224C55.4686 6.9824 55.2902 7.4416 55.2902 8C55.2902 8.5584 55.4686 9.0176 55.823 9.3776Z" stroke="white" stroke-width="0.2" stroke-miterlimit="10"/>
<path d="M60.4599 10.4V5.60001H61.2103L63.5431 9.33361H63.5695L63.5431 8.40881V5.60001H64.1599V10.4H63.5159L61.0751 6.48481H61.0487L61.0751 7.40961V10.4H60.4599Z" stroke="white" stroke-width="0.2" stroke-miterlimit="10"/>
<path fill-rule="evenodd" clip-rule="evenodd" d="M8.08474 6.4744C8.01577 6.66813 7.97827 6.89591 7.97827 7.15442V24.8472C7.97827 25.1063 8.01582 25.3342 8.08487 25.5279L17.6109 16.0005L8.08474 6.4744ZM8.7848 26.2422C9.12604 26.3459 9.55128 26.2816 10.0111 26.0208L21.2466 19.6362L18.318 16.7076L8.7848 26.2422ZM22.1489 19.1243L25.6119 17.1568C26.7295 16.5208 26.7295 15.4816 25.6119 14.8464L22.1473 12.8778L19.025 16.0005L22.1489 19.1243ZM21.2455 12.3654L10.0111 5.98163C9.55123 5.72032 9.12595 5.65623 8.78469 5.76014L18.3179 15.2934L21.2455 12.3654Z" fill="white"/>
<path d="M5 1H103V-1H5V1ZM107 5V27H109V5H107ZM103 31H5V33H103V31ZM1 27V5H-1V27H1ZM5 31C2.79086 31 1 29.2091 1 27H-1C-1 30.3137 1.68629 33 5 33V31ZM107 27C107 29.2091 105.209 31 103 31V33C106.314 33 109 30.3137 109 27H107ZM103 1C105.209 1 107 2.79086 107 5H109C109 1.68629 106.314 -1 103 -1V1ZM5 -1C1.68629 -1 -1 1.68629 -1 5H1C1 2.79086 2.79086 1 5 1V-1Z" fill="#78909C"/>
</svg>
