<svg width="15" height="15" viewBox="0 0 15 15" fill="none" xmlns="http://www.w3.org/2000/svg">
<path d="M12.755 12.6536C12.3217 12.2399 11.8937 11.8368 11.4703 11.438C10.6383 10.6544 9.82383 9.88733 9.02201 9.08933L8.85412 8.92224C8.98347 8.81075 9.1064 8.69161 9.22209 8.56514L9.40953 8.75269C10.1551 9.49874 11.0009 10.295 11.8516 11.0961C12.2782 11.4976 12.7059 11.9004 13.123 12.2986C13.2064 12.3782 13.3084 12.4655 13.404 12.5472C13.4184 12.5596 13.4327 12.5718 13.4468 12.5838C13.5602 12.681 13.6699 12.7766 13.7692 12.874C13.994 13.0944 14.0597 13.2262 14.0656 13.2758C14.0785 13.3854 14.0456 13.4469 14.0119 13.4828C13.9729 13.5243 13.906 13.5589 13.8167 13.5597H13.8166C13.7165 13.5606 13.5711 13.4978 13.3569 13.2959C13.2571 13.2017 13.161 13.0956 13.0604 12.9823C13.0504 12.971 13.0401 12.9595 13.0298 12.9478C12.9438 12.8507 12.8467 12.7411 12.755 12.6536ZM12.755 12.6536L12.4097 13.0152M12.755 12.6536C12.755 12.6536 12.755 12.6536 12.755 12.6536L12.4097 13.0152M12.4097 13.0152C12.4852 13.0873 12.5674 13.18 12.6565 13.2805C12.9634 13.6266 13.3512 14.0639 13.8211 14.0597M12.4097 13.0152C11.9819 12.6067 11.5566 12.2062 11.1343 11.8085C10.2991 11.0218 9.47577 10.2464 8.6693 9.44372C7.96842 9.94385 6.8773 10.3501 5.77582 10.3534C2.95902 10.3621 0.679339 8.09689 0.835718 5.40057C0.976269 2.97714 3.05346 0.758481 6.0934 0.953097C9.3925 1.1643 11.7783 4.51213 10.2219 7.69168L13.8211 14.0597M13.8211 14.0597C14.2548 14.0558 14.6212 13.7186 14.5622 13.2173C14.5179 12.8421 14.0774 12.4653 13.7279 12.1663C13.6309 12.0833 13.5409 12.0063 13.4683 11.937C13.0453 11.5331 12.6144 11.1275 12.1865 10.7246C11.3393 9.92696 10.5036 9.14012 9.76319 8.39924L13.8211 14.0597Z" fill="white" stroke="black"/>
</svg>
