<svg width="16" height="16" viewBox="0 0 16 16" fill="none" xmlns="http://www.w3.org/2000/svg">
<path d="M8 1.5C6.71442 1.5 5.45772 1.88122 4.3888 2.59545C3.31988 3.30968 2.48676 4.32484 1.99479 5.51256C1.50282 6.70028 1.37409 8.00721 1.6249 9.26809C1.8757 10.529 2.49477 11.6872 3.40381 12.5962C4.31285 13.5052 5.47104 14.1243 6.73192 14.3751C7.99279 14.6259 9.29973 14.4972 10.4874 14.0052C11.6752 13.5132 12.6903 12.6801 13.4046 11.6112C14.1188 10.5423 14.5 9.28558 14.5 8C14.498 6.2767 13.8126 4.62456 12.594 3.40601C11.3754 2.18745 9.7233 1.50199 8 1.5ZM10.3535 9.64648C10.4 9.69289 10.4369 9.74801 10.4621 9.80869C10.4873 9.86936 10.5003 9.93441 10.5003 10.0001C10.5004 10.0658 10.4874 10.1309 10.4623 10.1916C10.4372 10.2523 10.4004 10.3074 10.3539 10.3539C10.3074 10.4003 10.2523 10.4372 10.1916 10.4623C10.1309 10.4874 10.0658 10.5004 10.0001 10.5003C9.93441 10.5003 9.86937 10.4873 9.80869 10.4621C9.74801 10.4369 9.69289 10.4 9.64649 10.3535L8 8.70703L6.35352 10.3535C6.25973 10.4471 6.13262 10.4996 6.00011 10.4996C5.86761 10.4995 5.74056 10.4468 5.64686 10.3531C5.55317 10.2594 5.5005 10.1324 5.50043 9.99989C5.50036 9.86739 5.55289 9.74028 5.64649 9.64648L7.29297 8L5.64649 6.35352C5.55289 6.25972 5.50036 6.13261 5.50043 6.00011C5.5005 5.86761 5.55317 5.74055 5.64686 5.64686C5.74056 5.55317 5.86761 5.5005 6.00011 5.50043C6.13262 5.50036 6.25973 5.55289 6.35352 5.64648L8 7.29297L9.64649 5.64648C9.74028 5.55289 9.86739 5.50036 9.99989 5.50043C10.1324 5.5005 10.2594 5.55317 10.3531 5.64686C10.4468 5.74055 10.4995 5.86761 10.4996 6.00011C10.4996 6.13261 10.4471 6.25972 10.3535 6.35352L8.70703 8L10.3535 9.64648Z" fill="#738593"/>
</svg>
