<svg width="8" height="12" viewBox="0 0 8 12" fill="none" xmlns="http://www.w3.org/2000/svg">
<path d="M3.54102 11.8135V10.4395C2.9349 10.4258 2.39258 10.3688 1.91406 10.2686C1.4401 10.1637 1.00716 10.0247 0.615234 9.85156V8.04688C1.0026 8.23372 1.46517 8.40462 2.00293 8.55957C2.54069 8.70996 3.05339 8.80111 3.54102 8.83301V6.71387C2.82096 6.43132 2.24447 6.15788 1.81152 5.89355C1.38314 5.62467 1.07324 5.32845 0.881836 5.00488C0.694987 4.67676 0.601562 4.28483 0.601562 3.8291C0.601562 3.36426 0.724609 2.96322 0.970703 2.62598C1.22135 2.28418 1.56771 2.01074 2.00977 1.80566C2.45182 1.60059 2.96224 1.47298 3.54102 1.42285V0.376953H4.47754V1.39551C5.00618 1.41374 5.49837 1.47526 5.9541 1.58008C6.41439 1.68034 6.86556 1.82845 7.30762 2.02441L6.66504 3.62402C6.29134 3.46908 5.91536 3.34831 5.53711 3.26172C5.16341 3.17513 4.81022 3.11816 4.47754 3.09082V5.10742C4.9834 5.29427 5.46419 5.49707 5.91992 5.71582C6.37565 5.93457 6.74707 6.21257 7.03418 6.5498C7.32129 6.88704 7.46484 7.3291 7.46484 7.87598C7.46484 8.55501 7.21647 9.12467 6.71973 9.58496C6.22754 10.0452 5.48014 10.321 4.47754 10.4121V11.8135H3.54102ZM4.47754 8.78516C4.79655 8.73047 5.03125 8.63704 5.18164 8.50488C5.33203 8.36816 5.40723 8.19271 5.40723 7.97852C5.40723 7.85091 5.37305 7.73698 5.30469 7.63672C5.23633 7.53646 5.13151 7.44303 4.99023 7.35645C4.85352 7.2653 4.68262 7.17415 4.47754 7.08301V8.78516ZM3.54102 4.72461V3.11816C3.35417 3.14551 3.19466 3.19108 3.0625 3.25488C2.93034 3.31413 2.83008 3.3916 2.76172 3.4873C2.69336 3.58301 2.65918 3.69694 2.65918 3.8291C2.65918 3.96126 2.6888 4.07747 2.74805 4.17773C2.81185 4.27799 2.90755 4.37142 3.03516 4.45801C3.16732 4.5446 3.33594 4.63346 3.54102 4.72461Z" fill="black"/>
</svg>
