<svg width="12" height="18" viewBox="0 0 12 18" fill="none" xmlns="http://www.w3.org/2000/svg">
<path fill-rule="evenodd" clip-rule="evenodd" d="M5.83972 6.36263C5.83972 4.44227 5.83972 2.39882 5.83972 0.453883C5.83972 0.315486 5.81364 0.158312 5.83972 0.0588465C5.84493 0.0389602 5.84008 0.0360352 5.85828 0.0588465C5.83043 2.14045 5.86757 4.28101 5.83972 6.36263Z" fill="#393939"/>
<path fill-rule="evenodd" clip-rule="evenodd" d="M5.83019 6.37943C5.83019 8.20899 5.83019 10.0384 5.83019 11.8679C3.89953 10.8311 1.95382 9.80752 0.0371094 8.75805C1.97471 7.97126 3.89642 7.16973 5.83019 6.37943Z" fill="#393939"/>
<path fill-rule="evenodd" clip-rule="evenodd" d="M11.6332 9.79187C9.74821 12.1998 7.84164 14.6675 5.92366 17.0874C5.8979 17.12 5.87691 17.1656 5.83082 17.1799C5.83082 15.8428 5.83082 14.5342 5.83082 13.1707C5.83082 13.075 5.81157 12.9597 5.83082 12.9101C5.85256 12.8542 6.0798 12.7635 6.18361 12.7084C7.51979 11.999 8.82934 11.2897 10.1663 10.5819C10.6647 10.3182 11.1546 10.0389 11.6332 9.79187Z" fill="#3B3B3B"/>
<path fill-rule="evenodd" clip-rule="evenodd" d="M11.6511 8.75805C11.6515 8.74367 11.6442 8.73629 11.6326 8.73284C9.70555 5.82084 7.77395 2.91374 5.83021 0.0168101C5.83021 2.13201 5.83021 4.24745 5.83021 6.36262C3.89682 7.16453 1.95373 7.95773 0.0185676 8.75805C1.93906 9.81547 3.90179 10.8344 5.83021 11.8847C3.87917 10.855 1.95357 9.80239 0 8.77487C0 8.76926 0 8.76366 0 8.75805C1.94813 5.84317 3.88979 2.92159 5.83021 0C5.8333 0 5.8364 0 5.83949 0C7.7807 2.92115 9.72233 5.84277 11.6697 8.75805C11.6697 8.76086 11.6697 8.76365 11.6697 8.76646C11.6397 8.78414 11.6119 8.80376 11.5769 8.81689C11.5877 8.79 11.6665 8.78071 11.6511 8.75805Z" fill="#8C8C8C"/>
<path fill-rule="evenodd" clip-rule="evenodd" d="M5.85793 0.0588379C7.78022 2.95228 9.70298 5.84598 11.6324 8.73284C11.6441 8.73629 11.6514 8.74367 11.651 8.75806C9.71305 7.96296 7.78414 7.16001 5.83936 6.37102C5.85169 8.19199 5.81469 10.0619 5.85793 11.8679C5.85768 11.8761 5.84656 11.8744 5.83936 11.8763C5.83146 11.8779 5.83061 11.873 5.83008 11.8679C5.83008 10.0384 5.83008 8.209 5.83008 6.37943C5.83184 6.37262 5.83939 6.37105 5.83936 6.36262C5.86721 4.281 5.83008 2.14044 5.85793 0.0588379Z" fill="#353535"/>
<path fill-rule="evenodd" clip-rule="evenodd" d="M5.83117 11.8847C3.90276 10.8344 1.94003 9.81547 0.0195312 8.75806C1.9547 7.95773 3.89778 7.16454 5.83117 6.36262C5.83117 4.24745 5.83117 2.13202 5.83117 0.0168152C7.77492 2.91375 9.70651 5.82084 11.6335 8.73284C9.70408 5.84598 7.78131 2.95228 5.85903 0.0588404C5.84082 0.0360291 5.84568 0.0389541 5.84046 0.0588404C5.81438 0.158306 5.84046 0.31548 5.84046 0.453877C5.84046 2.39881 5.84046 4.44226 5.84046 6.36262C5.84049 6.37105 5.83294 6.37262 5.83117 6.37943C3.89741 7.16974 1.9757 7.97127 0.0380988 8.75806C1.95481 9.80753 3.90052 10.8311 5.83117 11.8679C5.8317 11.873 5.83256 11.8779 5.84046 11.8763C5.84217 11.8835 5.83684 11.8843 5.83117 11.8847Z" fill="#3B3B3B"/>
<path fill-rule="evenodd" clip-rule="evenodd" d="M5.87695 11.8679C5.87954 11.8507 5.90175 11.8511 5.91409 11.8427C5.9115 11.86 5.8893 11.8595 5.87695 11.8679Z" fill="#8C8C8C"/>
<path fill-rule="evenodd" clip-rule="evenodd" d="M5.92383 11.8427C5.93129 11.8214 5.96204 11.8213 5.97953 11.8091C5.97208 11.8304 5.94132 11.8305 5.92383 11.8427Z" fill="#8C8C8C"/>
<path fill-rule="evenodd" clip-rule="evenodd" d="M5.98828 11.8091C5.99087 11.7918 6.01308 11.7923 6.02542 11.7839C6.02283 11.8011 6.00063 11.8007 5.98828 11.8091Z" fill="#8C8C8C"/>
<path fill-rule="evenodd" clip-rule="evenodd" d="M6.03516 11.7839C6.03775 11.7666 6.05995 11.7671 6.07229 11.7587C6.0697 11.7759 6.0475 11.7754 6.03516 11.7839Z" fill="#8C8C8C"/>
<path fill-rule="evenodd" clip-rule="evenodd" d="M6.08008 11.7586C6.08267 11.7414 6.10487 11.7419 6.11721 11.7334C6.11462 11.7507 6.09243 11.7502 6.08008 11.7586Z" fill="#8C8C8C"/>
<path fill-rule="evenodd" clip-rule="evenodd" d="M6.12695 11.7334C6.13442 11.7122 6.16517 11.712 6.18266 11.6998C6.1752 11.7211 6.14444 11.7212 6.12695 11.7334Z" fill="#8C8C8C"/>
<path fill-rule="evenodd" clip-rule="evenodd" d="M6.19141 11.6998C6.194 11.6825 6.2162 11.683 6.22854 11.6746C6.22595 11.6919 6.20375 11.6914 6.19141 11.6998Z" fill="#8C8C8C"/>
<path fill-rule="evenodd" clip-rule="evenodd" d="M6.23828 11.6746C6.24087 11.6573 6.26308 11.6578 6.27541 11.6494C6.27282 11.6667 6.25063 11.6662 6.23828 11.6746Z" fill="#8C8C8C"/>
<path fill-rule="evenodd" clip-rule="evenodd" d="M6.28516 11.6494C6.31067 11.6221 6.35197 11.609 6.38728 11.5905C6.36177 11.6179 6.32046 11.6309 6.28516 11.6494Z" fill="#8C8C8C"/>
<path fill-rule="evenodd" clip-rule="evenodd" d="M6.39648 11.5906C6.39907 11.5733 6.42128 11.5738 6.43362 11.5653C6.43103 11.5826 6.40883 11.5821 6.39648 11.5906Z" fill="#8C8C8C"/>
<path fill-rule="evenodd" clip-rule="evenodd" d="M6.44336 11.5653C6.44595 11.5481 6.46816 11.5486 6.48049 11.5401C6.4779 11.5574 6.45571 11.5569 6.44336 11.5653Z" fill="#8C8C8C"/>
<path fill-rule="evenodd" clip-rule="evenodd" d="M6.49023 11.5401C6.50967 11.5157 6.54621 11.5067 6.57379 11.4897C6.55518 11.5149 6.52007 11.5251 6.49023 11.5401Z" fill="#8C8C8C"/>
<path fill-rule="evenodd" clip-rule="evenodd" d="M6.60156 11.4813C6.60415 11.464 6.62636 11.4645 6.6387 11.4561C6.63611 11.4734 6.61391 11.4729 6.60156 11.4813Z" fill="#8C8C8C"/>
<path fill-rule="evenodd" clip-rule="evenodd" d="M6.64648 11.4561C6.64907 11.4388 6.67128 11.4393 6.68362 11.4308C6.68103 11.4481 6.65883 11.4476 6.64648 11.4561Z" fill="#8C8C8C"/>
<path fill-rule="evenodd" clip-rule="evenodd" d="M6.69336 11.4309C6.7128 11.4064 6.74933 11.3975 6.77692 11.3804C6.75831 11.4056 6.7232 11.4159 6.69336 11.4309Z" fill="#8C8C8C"/>
<path fill-rule="evenodd" clip-rule="evenodd" d="M6.80469 11.372C6.80728 11.3547 6.82948 11.3552 6.84182 11.3468C6.83923 11.3641 6.81703 11.3636 6.80469 11.372Z" fill="#8C8C8C"/>
<path fill-rule="evenodd" clip-rule="evenodd" d="M6.85156 11.3468C6.85415 11.3295 6.87636 11.33 6.8887 11.3216C6.88611 11.3389 6.86391 11.3384 6.85156 11.3468Z" fill="#8C8C8C"/>
<path fill-rule="evenodd" clip-rule="evenodd" d="M6.89844 11.3216C6.90103 11.3043 6.92323 11.3048 6.93557 11.2964C6.93298 11.3137 6.91078 11.3132 6.89844 11.3216Z" fill="#8C8C8C"/>
<path fill-rule="evenodd" clip-rule="evenodd" d="M6.94336 11.2964C6.94595 11.2791 6.96816 11.2796 6.98049 11.2711C6.9779 11.2884 6.95571 11.2879 6.94336 11.2964Z" fill="#8C8C8C"/>
<path fill-rule="evenodd" clip-rule="evenodd" d="M7.00977 11.2628C7.01236 11.2455 7.03456 11.246 7.0469 11.2375C7.04431 11.2548 7.02211 11.2543 7.00977 11.2628Z" fill="#8C8C8C"/>
<path fill-rule="evenodd" clip-rule="evenodd" d="M7.05664 11.2375C7.05923 11.2203 7.08144 11.2207 7.09378 11.2123C7.09119 11.2296 7.06899 11.2291 7.05664 11.2375Z" fill="#8C8C8C"/>
<path fill-rule="evenodd" clip-rule="evenodd" d="M7.10156 11.2123C7.10415 11.195 7.12636 11.1955 7.1387 11.1871C7.13611 11.2044 7.11391 11.2039 7.10156 11.2123Z" fill="#8C8C8C"/>
<path fill-rule="evenodd" clip-rule="evenodd" d="M7.14844 11.1871C7.15103 11.1698 7.17323 11.1703 7.18557 11.1619C7.18298 11.1792 7.16079 11.1787 7.14844 11.1871Z" fill="#8C8C8C"/>
<path fill-rule="evenodd" clip-rule="evenodd" d="M7.19531 11.1619C7.20278 11.1406 7.23352 11.1405 7.25101 11.1283C7.24356 11.1495 7.2128 11.1497 7.19531 11.1619Z" fill="#8C8C8C"/>
<path fill-rule="evenodd" clip-rule="evenodd" d="M7.25977 11.1283C7.26236 11.111 7.28456 11.1115 7.2969 11.1031C7.29431 11.1203 7.27211 11.1198 7.25977 11.1283Z" fill="#8C8C8C"/>
<path fill-rule="evenodd" clip-rule="evenodd" d="M7.30664 11.1031C7.30923 11.0858 7.33144 11.0863 7.34378 11.0779C7.34119 11.0951 7.31899 11.0946 7.30664 11.1031Z" fill="#8C8C8C"/>
<path fill-rule="evenodd" clip-rule="evenodd" d="M7.35352 11.0779C7.35611 11.0606 7.37831 11.0611 7.39065 11.0526C7.38806 11.0699 7.36586 11.0694 7.35352 11.0779Z" fill="#8C8C8C"/>
<path fill-rule="evenodd" clip-rule="evenodd" d="M7.39844 11.0526C7.4059 11.0314 7.43665 11.0312 7.45414 11.019C7.44668 11.0403 7.41593 11.0404 7.39844 11.0526Z" fill="#8C8C8C"/>
<path fill-rule="evenodd" clip-rule="evenodd" d="M7.46484 11.019C7.46743 11.0017 7.48964 11.0022 7.50198 10.9938C7.49939 11.0111 7.47719 11.0106 7.46484 11.019Z" fill="#8C8C8C"/>
<path fill-rule="evenodd" clip-rule="evenodd" d="M7.50977 10.9938C7.51236 10.9765 7.53456 10.977 7.5469 10.9686C7.54431 10.9858 7.52211 10.9853 7.50977 10.9938Z" fill="#8C8C8C"/>
<path fill-rule="evenodd" clip-rule="evenodd" d="M7.55664 10.9686C7.58215 10.9412 7.62346 10.9282 7.65876 10.9097C7.63325 10.9371 7.59195 10.9501 7.55664 10.9686Z" fill="#8C8C8C"/>
<path fill-rule="evenodd" clip-rule="evenodd" d="M7.66797 10.9097C7.67056 10.8925 7.69277 10.893 7.7051 10.8845C7.70251 10.9018 7.68032 10.9013 7.66797 10.9097Z" fill="#8C8C8C"/>
<path fill-rule="evenodd" clip-rule="evenodd" d="M7.71484 10.8845C7.71743 10.8673 7.73964 10.8678 7.75198 10.8593C7.74939 10.8766 7.72719 10.8761 7.71484 10.8845Z" fill="#8C8C8C"/>
<path fill-rule="evenodd" clip-rule="evenodd" d="M7.76172 10.8593C7.78116 10.8349 7.81769 10.8259 7.84527 10.8089C7.82667 10.834 7.79156 10.8443 7.76172 10.8593Z" fill="#8C8C8C"/>
<path fill-rule="evenodd" clip-rule="evenodd" d="M7.87305 10.8005C7.87564 10.7832 7.89784 10.7837 7.91018 10.7753C7.90759 10.7925 7.88539 10.792 7.87305 10.8005Z" fill="#8C8C8C"/>
<path fill-rule="evenodd" clip-rule="evenodd" d="M7.91992 10.7753C7.92251 10.758 7.94472 10.7585 7.95706 10.7501C7.95447 10.7673 7.93227 10.7668 7.91992 10.7753Z" fill="#8C8C8C"/>
<path fill-rule="evenodd" clip-rule="evenodd" d="M7.96484 10.7501C7.98428 10.7256 8.02082 10.7167 8.0484 10.6996C8.0298 10.7248 7.99468 10.735 7.96484 10.7501Z" fill="#8C8C8C"/>
<path fill-rule="evenodd" clip-rule="evenodd" d="M8.07617 10.6912C8.07876 10.6739 8.10097 10.6744 8.1133 10.666C8.11071 10.6833 8.08852 10.6828 8.07617 10.6912Z" fill="#8C8C8C"/>
<path fill-rule="evenodd" clip-rule="evenodd" d="M8.12305 10.666C8.12564 10.6487 8.14784 10.6492 8.16018 10.6408C8.15759 10.6581 8.13539 10.6576 8.12305 10.666Z" fill="#8C8C8C"/>
<path fill-rule="evenodd" clip-rule="evenodd" d="M8.16992 10.6408C8.17251 10.6235 8.19472 10.624 8.20705 10.6156C8.20446 10.6328 8.18227 10.6323 8.16992 10.6408Z" fill="#8C8C8C"/>
<path fill-rule="evenodd" clip-rule="evenodd" d="M8.2168 10.6156C8.21939 10.5983 8.24159 10.5988 8.25393 10.5904C8.25134 10.6076 8.22914 10.6071 8.2168 10.6156Z" fill="#8C8C8C"/>
<path fill-rule="evenodd" clip-rule="evenodd" d="M8.28125 10.5819C8.28384 10.5647 8.30604 10.5652 8.31838 10.5567C8.31579 10.574 8.2936 10.5735 8.28125 10.5819Z" fill="#8C8C8C"/>
<path fill-rule="evenodd" clip-rule="evenodd" d="M8.32812 10.5567C8.33072 10.5395 8.35292 10.54 8.36526 10.5315C8.36267 10.5488 8.34047 10.5483 8.32812 10.5567Z" fill="#8C8C8C"/>
<path fill-rule="evenodd" clip-rule="evenodd" d="M8.37305 10.5315C8.37564 10.5143 8.39784 10.5148 8.41018 10.5063C8.40759 10.5236 8.38539 10.5231 8.37305 10.5315Z" fill="#8C8C8C"/>
<path fill-rule="evenodd" clip-rule="evenodd" d="M8.41992 10.5063C8.42251 10.489 8.44472 10.4895 8.45706 10.4811C8.45447 10.4984 8.43227 10.4979 8.41992 10.5063Z" fill="#8C8C8C"/>
<path fill-rule="evenodd" clip-rule="evenodd" d="M8.4668 10.4811C8.47426 10.4598 8.50501 10.4597 8.5225 10.4475C8.51504 10.4688 8.48429 10.4689 8.4668 10.4811Z" fill="#8C8C8C"/>
<path fill-rule="evenodd" clip-rule="evenodd" d="M8.53125 10.4475C8.53384 10.4302 8.55605 10.4307 8.56839 10.4222C8.5658 10.4395 8.5436 10.439 8.53125 10.4475Z" fill="#8C8C8C"/>
<path fill-rule="evenodd" clip-rule="evenodd" d="M8.57812 10.4222C8.58072 10.405 8.60292 10.4055 8.61526 10.397C8.61267 10.4143 8.59047 10.4138 8.57812 10.4222Z" fill="#8C8C8C"/>
<path fill-rule="evenodd" clip-rule="evenodd" d="M8.625 10.397C8.62759 10.3798 8.6498 10.3803 8.66214 10.3718C8.65954 10.3891 8.63735 10.3886 8.625 10.397Z" fill="#8C8C8C"/>
<path fill-rule="evenodd" clip-rule="evenodd" d="M8.67188 10.3718C8.67934 10.3506 8.71009 10.3504 8.72758 10.3382C8.72012 10.3595 8.68937 10.3596 8.67188 10.3718Z" fill="#8C8C8C"/>
<path fill-rule="evenodd" clip-rule="evenodd" d="M8.73633 10.3382C8.73892 10.3209 8.76112 10.3214 8.77346 10.313C8.77087 10.3303 8.74867 10.3298 8.73633 10.3382Z" fill="#8C8C8C"/>
<path fill-rule="evenodd" clip-rule="evenodd" d="M8.7832 10.313C8.78579 10.2957 8.808 10.2962 8.82034 10.2878C8.81775 10.3051 8.79555 10.3046 8.7832 10.313Z" fill="#8C8C8C"/>
<path fill-rule="evenodd" clip-rule="evenodd" d="M8.82812 10.2878C8.83072 10.2705 8.85293 10.271 8.86526 10.2625C8.86267 10.2798 8.84047 10.2793 8.82812 10.2878Z" fill="#8C8C8C"/>
<path fill-rule="evenodd" clip-rule="evenodd" d="M8.875 10.2626C8.88246 10.2413 8.91321 10.2411 8.9307 10.2289C8.92325 10.2502 8.89249 10.2504 8.875 10.2626Z" fill="#8C8C8C"/>
<path fill-rule="evenodd" clip-rule="evenodd" d="M8.93945 10.2289C8.94204 10.2116 8.96425 10.2121 8.97659 10.2037C8.974 10.221 8.9518 10.2205 8.93945 10.2289Z" fill="#8C8C8C"/>
<path fill-rule="evenodd" clip-rule="evenodd" d="M8.98633 10.2037C8.98892 10.1864 9.01112 10.1869 9.02346 10.1785C9.02087 10.1958 8.99868 10.1953 8.98633 10.2037Z" fill="#8C8C8C"/>
<path fill-rule="evenodd" clip-rule="evenodd" d="M9.0332 10.1785C9.05871 10.1512 9.10002 10.1381 9.13532 10.1197C9.10981 10.147 9.06851 10.16 9.0332 10.1785Z" fill="#8C8C8C"/>
<path fill-rule="evenodd" clip-rule="evenodd" d="M9.14453 10.1197C9.14712 10.1024 9.16933 10.1029 9.18167 10.0945C9.17908 10.1117 9.15688 10.1112 9.14453 10.1197Z" fill="#8C8C8C"/>
<path fill-rule="evenodd" clip-rule="evenodd" d="M9.19141 10.0945C9.194 10.0772 9.2162 10.0777 9.22854 10.0692C9.22595 10.0865 9.20375 10.086 9.19141 10.0945Z" fill="#8C8C8C"/>
<path fill-rule="evenodd" clip-rule="evenodd" d="M9.23828 10.0692C9.25772 10.0448 9.29425 10.0359 9.32183 10.0188C9.30323 10.044 9.26812 10.0542 9.23828 10.0692Z" fill="#8C8C8C"/>
<path fill-rule="evenodd" clip-rule="evenodd" d="M9.34961 10.0104C9.3522 9.99314 9.37441 9.99364 9.38675 9.9852C9.38416 10.0025 9.36196 10.002 9.34961 10.0104Z" fill="#8C8C8C"/>
<path fill-rule="evenodd" clip-rule="evenodd" d="M9.39453 9.98518C9.39712 9.9679 9.41933 9.9684 9.43167 9.95996C9.42908 9.97723 9.40688 9.97674 9.39453 9.98518Z" fill="#8C8C8C"/>
<path fill-rule="evenodd" clip-rule="evenodd" d="M9.44141 9.95997C9.46085 9.93555 9.49738 9.9266 9.52496 9.90955C9.50636 9.93472 9.47125 9.94496 9.44141 9.95997Z" fill="#8C8C8C"/>
<path fill-rule="evenodd" clip-rule="evenodd" d="M9.55273 9.90113C9.55532 9.88386 9.57753 9.88435 9.58987 9.87592C9.58728 9.89319 9.56508 9.89269 9.55273 9.90113Z" fill="#8C8C8C"/>
<path fill-rule="evenodd" clip-rule="evenodd" d="M9.59961 9.87592C9.6022 9.85865 9.62441 9.85915 9.63675 9.85071C9.63416 9.86798 9.61196 9.86748 9.59961 9.87592Z" fill="#8C8C8C"/>
<path fill-rule="evenodd" clip-rule="evenodd" d="M9.64648 9.85072C9.64907 9.83344 9.67128 9.83394 9.68362 9.8255C9.68103 9.84278 9.65883 9.84228 9.64648 9.85072Z" fill="#8C8C8C"/>
<path fill-rule="evenodd" clip-rule="evenodd" d="M9.69141 9.82548C9.694 9.80821 9.7162 9.8087 9.72854 9.80026C9.72595 9.81754 9.70375 9.81704 9.69141 9.82548Z" fill="#8C8C8C"/>
<path fill-rule="evenodd" clip-rule="evenodd" d="M9.73828 9.80028C9.74575 9.77902 9.77649 9.77885 9.79398 9.76666C9.78653 9.78793 9.75577 9.78809 9.73828 9.80028Z" fill="#8C8C8C"/>
<path fill-rule="evenodd" clip-rule="evenodd" d="M9.80273 9.76667C9.80533 9.7494 9.82754 9.74989 9.83988 9.74146C9.83729 9.75873 9.81508 9.75823 9.80273 9.76667Z" fill="#8C8C8C"/>
<path fill-rule="evenodd" clip-rule="evenodd" d="M9.84961 9.74143C9.8522 9.72416 9.87441 9.72466 9.88674 9.71622C9.88415 9.73349 9.86196 9.73299 9.84961 9.74143Z" fill="#8C8C8C"/>
<path fill-rule="evenodd" clip-rule="evenodd" d="M9.89648 9.71623C9.89907 9.69895 9.92128 9.69945 9.93362 9.69101C9.93103 9.70828 9.90883 9.70779 9.89648 9.71623Z" fill="#8C8C8C"/>
<path fill-rule="evenodd" clip-rule="evenodd" d="M9.94336 9.691C9.95082 9.66973 9.98157 9.66957 9.99906 9.65738C9.99161 9.67865 9.96085 9.67881 9.94336 9.691Z" fill="#8C8C8C"/>
<path fill-rule="evenodd" clip-rule="evenodd" d="M10.0078 9.65739C10.0104 9.64011 10.0326 9.64061 10.0449 9.63217C10.0424 9.64944 10.0202 9.64895 10.0078 9.65739Z" fill="#8C8C8C"/>
<path fill-rule="evenodd" clip-rule="evenodd" d="M10.0547 9.63218C10.0573 9.61491 10.0795 9.6154 10.0918 9.60696C10.0892 9.62424 10.067 9.62374 10.0547 9.63218Z" fill="#8C8C8C"/>
<path fill-rule="evenodd" clip-rule="evenodd" d="M10.1016 9.60697C10.1042 9.5897 10.1264 9.59019 10.1387 9.58176C10.1361 9.59903 10.1139 9.59853 10.1016 9.60697Z" fill="#8C8C8C"/>
<path fill-rule="evenodd" clip-rule="evenodd" d="M10.1465 9.58175C10.1539 9.56048 10.1847 9.56032 10.2022 9.54813C10.1947 9.5694 10.164 9.56956 10.1465 9.58175Z" fill="#8C8C8C"/>
<path fill-rule="evenodd" clip-rule="evenodd" d="M10.2129 9.54813C10.2155 9.53086 10.2377 9.53136 10.25 9.52292C10.2474 9.54019 10.2252 9.53969 10.2129 9.54813Z" fill="#8C8C8C"/>
<path fill-rule="evenodd" clip-rule="evenodd" d="M10.2578 9.52293C10.2604 9.50565 10.2826 9.50615 10.2949 9.49771C10.2924 9.51498 10.2702 9.51449 10.2578 9.52293Z" fill="#8C8C8C"/>
<path fill-rule="evenodd" clip-rule="evenodd" d="M10.3047 9.49771C10.3302 9.47038 10.3715 9.45734 10.4068 9.43887C10.3813 9.46621 10.34 9.47924 10.3047 9.49771Z" fill="#8C8C8C"/>
<path fill-rule="evenodd" clip-rule="evenodd" d="M10.416 9.43885C10.4186 9.42158 10.4408 9.42207 10.4532 9.41364C10.4506 9.43091 10.4284 9.43041 10.416 9.43885Z" fill="#8C8C8C"/>
<path fill-rule="evenodd" clip-rule="evenodd" d="M10.4629 9.41364C10.4655 9.39637 10.4877 9.39687 10.5 9.38843C10.4974 9.4057 10.4752 9.4052 10.4629 9.41364Z" fill="#8C8C8C"/>
<path fill-rule="evenodd" clip-rule="evenodd" d="M10.5098 9.38844C10.5292 9.36402 10.5657 9.35507 10.5933 9.33801C10.5747 9.36319 10.5396 9.37343 10.5098 9.38844Z" fill="#8C8C8C"/>
<path fill-rule="evenodd" clip-rule="evenodd" d="M10.6211 9.3296C10.6237 9.31233 10.6459 9.31282 10.6582 9.30438C10.6556 9.32166 10.6334 9.32116 10.6211 9.3296Z" fill="#8C8C8C"/>
<path fill-rule="evenodd" clip-rule="evenodd" d="M10.668 9.30439C10.6706 9.28712 10.6928 9.28761 10.7051 9.27917C10.7025 9.29645 10.6803 9.29595 10.668 9.30439Z" fill="#8C8C8C"/>
<path fill-rule="evenodd" clip-rule="evenodd" d="M10.7129 9.27916C10.7323 9.25473 10.7689 9.24578 10.7964 9.22873C10.7778 9.2539 10.7427 9.26415 10.7129 9.27916Z" fill="#8C8C8C"/>
<path fill-rule="evenodd" clip-rule="evenodd" d="M10.8242 9.22035C10.8268 9.20307 10.849 9.20357 10.8614 9.19513C10.8588 9.2124 10.8366 9.21191 10.8242 9.22035Z" fill="#8C8C8C"/>
<path fill-rule="evenodd" clip-rule="evenodd" d="M10.8711 9.19511C10.8737 9.17784 10.8959 9.17833 10.9082 9.16989C10.9056 9.18717 10.8834 9.18667 10.8711 9.19511Z" fill="#8C8C8C"/>
<path fill-rule="evenodd" clip-rule="evenodd" d="M10.918 9.16989C10.9206 9.15263 10.9428 9.15312 10.9551 9.14468C10.9525 9.16195 10.9303 9.16146 10.918 9.16989Z" fill="#8C8C8C"/>
<path fill-rule="evenodd" clip-rule="evenodd" d="M10.9648 9.14469C10.9674 9.12742 10.9896 9.12791 11.002 9.11948C10.9994 9.13675 10.9772 9.13625 10.9648 9.14469Z" fill="#8C8C8C"/>
<path fill-rule="evenodd" clip-rule="evenodd" d="M11.0098 9.11947C11.0172 9.0982 11.048 9.09803 11.0655 9.08585C11.058 9.10712 11.0273 9.10728 11.0098 9.11947Z" fill="#8C8C8C"/>
<path fill-rule="evenodd" clip-rule="evenodd" d="M11.0762 9.08585C11.0788 9.06858 11.101 9.06908 11.1133 9.06064C11.1107 9.07791 11.0885 9.07741 11.0762 9.08585Z" fill="#8C8C8C"/>
<path fill-rule="evenodd" clip-rule="evenodd" d="M11.1211 9.06065C11.1237 9.04337 11.1459 9.04387 11.1582 9.03543C11.1556 9.0527 11.1334 9.05221 11.1211 9.06065Z" fill="#8C8C8C"/>
<path fill-rule="evenodd" clip-rule="evenodd" d="M11.168 9.03541C11.1706 9.01813 11.1928 9.01863 11.2051 9.01019C11.2025 9.02746 11.1803 9.02697 11.168 9.03541Z" fill="#8C8C8C"/>
<path fill-rule="evenodd" clip-rule="evenodd" d="M11.2148 9.01021C11.2223 8.98895 11.2531 8.98878 11.2706 8.97659C11.2631 8.99787 11.2323 8.99803 11.2148 9.01021Z" fill="#8C8C8C"/>
<path fill-rule="evenodd" clip-rule="evenodd" d="M11.2793 8.97657C11.2819 8.9593 11.3041 8.95979 11.3164 8.95135C11.3138 8.96863 11.2916 8.96813 11.2793 8.97657Z" fill="#8C8C8C"/>
<path fill-rule="evenodd" clip-rule="evenodd" d="M11.3262 8.95136C11.3288 8.93409 11.351 8.93459 11.3633 8.92615C11.3607 8.94342 11.3385 8.94292 11.3262 8.95136Z" fill="#8C8C8C"/>
<path fill-rule="evenodd" clip-rule="evenodd" d="M11.373 8.92615C11.3756 8.90888 11.3978 8.90938 11.4102 8.90094C11.4076 8.91821 11.3854 8.91771 11.373 8.92615Z" fill="#8C8C8C"/>
<path fill-rule="evenodd" clip-rule="evenodd" d="M11.4199 8.90093C11.4274 8.87966 11.4581 8.8795 11.4756 8.86731C11.4682 8.88858 11.4374 8.88874 11.4199 8.90093Z" fill="#8C8C8C"/>
<path fill-rule="evenodd" clip-rule="evenodd" d="M11.4844 8.86731C11.487 8.85004 11.5092 8.85054 11.5215 8.8421C11.5189 8.85937 11.4967 8.85888 11.4844 8.86731Z" fill="#8C8C8C"/>
<path fill-rule="evenodd" clip-rule="evenodd" d="M11.5312 8.84211C11.5338 8.82484 11.556 8.82533 11.5684 8.81689C11.5658 8.83417 11.5436 8.83367 11.5312 8.84211Z" fill="#8C8C8C"/>
<path fill-rule="evenodd" clip-rule="evenodd" d="M5.85855 17.1883C5.80199 17.211 5.77531 17.1368 5.75642 17.1127C3.85621 14.6785 1.91914 12.2149 0.00976562 9.78346C1.93987 10.7901 3.89277 11.8489 5.82141 12.8849C7.77677 11.8563 9.70308 10.8014 11.6609 9.77505C9.73503 12.2537 7.78673 14.7116 5.85855 17.1883ZM10.1662 10.5819C8.82921 11.2897 7.51966 11.999 6.18348 12.7084C6.07967 12.7635 5.85243 12.8542 5.83069 12.9101C5.81144 12.9597 5.83069 13.075 5.83069 13.1707C5.83069 14.5341 5.83069 15.8428 5.83069 17.1799C5.87678 17.1656 5.89777 17.12 5.92353 17.0874C7.84151 14.6675 9.74808 12.1998 11.6331 9.79187C11.1544 10.0389 10.6645 10.3181 10.1662 10.5819Z" fill="#8C8C8C"/>
<path fill-rule="evenodd" clip-rule="evenodd" d="M11.6507 8.75806C11.666 8.78071 11.5873 8.79001 11.5764 8.8169C11.5733 8.8169 11.5702 8.8169 11.5671 8.8169C11.5548 8.82534 11.5326 8.82484 11.53 8.84211C11.5269 8.84211 11.5238 8.84211 11.5207 8.84211C11.5084 8.85055 11.4862 8.85006 11.4836 8.86733C11.4805 8.86733 11.4774 8.86733 11.4743 8.86733C11.4568 8.87952 11.4261 8.87968 11.4186 8.90095C11.4155 8.90095 11.4124 8.90095 11.4093 8.90095C11.397 8.90939 11.3748 8.90889 11.3722 8.92616C11.3691 8.92616 11.366 8.92616 11.3629 8.92616C11.3506 8.9346 11.3283 8.93411 11.3258 8.95138C11.3227 8.95138 11.3196 8.95138 11.3165 8.95138C11.3041 8.95982 11.2819 8.95932 11.2793 8.97659C11.2762 8.97659 11.2732 8.97659 11.2701 8.97659C11.2526 8.98878 11.2218 8.98895 11.2143 9.01021C11.2112 9.01021 11.2082 9.01021 11.2051 9.01021C11.1927 9.01865 11.1705 9.01816 11.1679 9.03543C11.1648 9.03543 11.1617 9.03543 11.1586 9.03543C11.1463 9.04387 11.1241 9.04337 11.1215 9.06064C11.1184 9.06064 11.1153 9.06064 11.1122 9.06064C11.0999 9.06908 11.0777 9.06859 11.0751 9.08586C11.072 9.08586 11.0689 9.08586 11.0658 9.08586C11.0483 9.09805 11.0176 9.09821 11.0101 9.11948C11.007 9.11948 11.0039 9.11948 11.0008 9.11948C10.9885 9.12792 10.9663 9.12742 10.9637 9.14469C10.9606 9.14469 10.9575 9.14469 10.9544 9.14469C10.9421 9.15313 10.9199 9.15264 10.9173 9.16991C10.9142 9.16991 10.9111 9.16991 10.908 9.16991C10.8956 9.17835 10.8734 9.17785 10.8708 9.19512C10.8677 9.19512 10.8647 9.19512 10.8616 9.19512C10.8492 9.20356 10.827 9.20307 10.8244 9.22034C10.8116 9.21998 10.8041 9.2243 10.7966 9.22874C10.769 9.2458 10.7325 9.25475 10.713 9.27917C10.7099 9.27917 10.7068 9.27917 10.7037 9.27917C10.6914 9.28761 10.6692 9.28712 10.6666 9.30439C10.6635 9.30439 10.6604 9.30439 10.6573 9.30439C10.645 9.31283 10.6228 9.31233 10.6202 9.3296C10.6074 9.32924 10.5998 9.33356 10.5923 9.33801C10.5648 9.35506 10.5282 9.36401 10.5088 9.38844C10.5057 9.38844 10.5026 9.38844 10.4995 9.38844C10.4872 9.39688 10.465 9.39638 10.4624 9.41366C10.4593 9.41366 10.4562 9.41366 10.4531 9.41366C10.4407 9.42209 10.4185 9.4216 10.4159 9.43887C10.4128 9.43887 10.4098 9.43887 10.4067 9.43887C10.3714 9.45734 10.33 9.47037 10.3045 9.49771C10.3014 9.49771 10.2984 9.49771 10.2953 9.49771C10.2829 9.50614 10.2607 9.50565 10.2581 9.52292C10.255 9.52292 10.2519 9.52292 10.2488 9.52292C10.2365 9.53136 10.2143 9.53086 10.2117 9.54814C10.2086 9.54814 10.2055 9.54814 10.2024 9.54814C10.1849 9.56032 10.1542 9.56049 10.1467 9.58176C10.1436 9.58176 10.1405 9.58176 10.1374 9.58176C10.1251 9.59019 10.1029 9.5897 10.1003 9.60697C10.0972 9.60697 10.0941 9.60697 10.091 9.60697C10.0787 9.61541 10.0565 9.61491 10.0539 9.63219C10.0508 9.63219 10.0477 9.63219 10.0446 9.63219C10.0323 9.64062 10.01 9.64013 10.0075 9.6574C10.0044 9.6574 10.0013 9.6574 9.99817 9.6574C9.98068 9.66959 9.94993 9.66976 9.94247 9.69102C9.93937 9.69102 9.93629 9.69102 9.93319 9.69102C9.92085 9.69946 9.89864 9.69896 9.89605 9.71624C9.89295 9.71624 9.88987 9.71624 9.88677 9.71624C9.87443 9.72467 9.85222 9.72418 9.84963 9.74145C9.84653 9.74145 9.84345 9.74145 9.84035 9.74145C9.82801 9.74989 9.8058 9.74939 9.80321 9.76667C9.80011 9.76667 9.79703 9.76667 9.79393 9.76667C9.77644 9.77885 9.74569 9.77902 9.73823 9.80029C9.73513 9.80029 9.73204 9.80029 9.72894 9.80029C9.7166 9.80873 9.6944 9.80823 9.69181 9.8255C9.68871 9.8255 9.68562 9.8255 9.68252 9.8255C9.67019 9.83394 9.64798 9.83344 9.64539 9.85072C9.64229 9.85072 9.63921 9.85072 9.63611 9.85072C9.62377 9.85916 9.60156 9.85866 9.59897 9.87593C9.59587 9.87593 9.59279 9.87593 9.58969 9.87593C9.57735 9.88437 9.55514 9.88387 9.55255 9.90115C9.53977 9.90079 9.53217 9.90511 9.5247 9.90955C9.49712 9.92661 9.46059 9.93556 9.44115 9.95998C9.43805 9.95998 9.43495 9.95998 9.43186 9.95998C9.41952 9.96842 9.39732 9.96792 9.39473 9.9852C9.39164 9.9852 9.38853 9.9852 9.38544 9.9852C9.3731 9.99364 9.3509 9.99314 9.34831 10.0104C9.33552 10.0101 9.32793 10.0144 9.32046 10.0188C9.29287 10.0359 9.25634 10.0448 9.2369 10.0692C9.23381 10.0692 9.23071 10.0692 9.22762 10.0692C9.21528 10.0777 9.19307 10.0772 9.19048 10.0945C9.18739 10.0945 9.18429 10.0945 9.1812 10.0945C9.16886 10.1029 9.14665 10.1024 9.14406 10.1197C9.14097 10.1197 9.13787 10.1197 9.13478 10.1197C9.09947 10.1381 9.05817 10.1512 9.03266 10.1785C9.02957 10.1785 9.02647 10.1785 9.02337 10.1785C9.01104 10.187 8.98883 10.1865 8.98624 10.2037C8.98315 10.2037 8.98005 10.2037 8.97696 10.2037C8.96462 10.2122 8.94241 10.2117 8.93982 10.2289C8.93673 10.2289 8.93363 10.2289 8.93054 10.2289C8.91305 10.2411 8.8823 10.2413 8.87483 10.2626C8.87174 10.2626 8.86864 10.2626 8.86555 10.2626C8.85321 10.271 8.83101 10.2705 8.82842 10.2878C8.82532 10.2878 8.82222 10.2878 8.81913 10.2878C8.80679 10.2962 8.78459 10.2957 8.782 10.313C8.7789 10.313 8.7758 10.313 8.77271 10.313C8.76037 10.3214 8.73817 10.3209 8.73558 10.3382C8.73249 10.3382 8.72939 10.3382 8.72629 10.3382C8.7088 10.3504 8.67806 10.3506 8.67059 10.3718C8.6675 10.3718 8.6644 10.3718 8.66131 10.3718C8.64897 10.3803 8.62676 10.3798 8.62417 10.397C8.62108 10.397 8.61798 10.397 8.61489 10.397C8.60255 10.4055 8.58034 10.405 8.57775 10.4223C8.57466 10.4223 8.57156 10.4223 8.56847 10.4223C8.55613 10.4307 8.53392 10.4302 8.53133 10.4475C8.52824 10.4475 8.52514 10.4475 8.52205 10.4475C8.50456 10.4597 8.47381 10.4598 8.46635 10.4811C8.46326 10.4811 8.46016 10.4811 8.45706 10.4811C8.44473 10.4895 8.42252 10.489 8.41993 10.5063C8.41684 10.5063 8.41374 10.5063 8.41065 10.5063C8.39831 10.5147 8.3761 10.5143 8.37351 10.5315C8.37042 10.5315 8.36732 10.5315 8.36423 10.5315C8.35189 10.54 8.32968 10.5395 8.32709 10.5567C8.324 10.5567 8.3209 10.5567 8.31781 10.5567C8.30547 10.5652 8.28326 10.5647 8.28067 10.582C8.26789 10.5816 8.26029 10.5859 8.25282 10.5904C8.24048 10.5988 8.21828 10.5983 8.21569 10.6156C8.21259 10.6156 8.20949 10.6156 8.2064 10.6156C8.19406 10.624 8.17186 10.6235 8.16927 10.6408C8.16618 10.6408 8.16307 10.6408 8.15998 10.6408C8.14764 10.6492 8.12544 10.6487 8.12285 10.666C8.11976 10.666 8.11666 10.666 8.11356 10.666C8.10123 10.6744 8.07902 10.6739 8.07643 10.6912C8.06365 10.6909 8.05605 10.6952 8.04858 10.6996C8.021 10.7167 7.98446 10.7256 7.96502 10.7501C7.96193 10.7501 7.95883 10.7501 7.95574 10.7501C7.9434 10.7585 7.9212 10.758 7.9186 10.7753C7.91551 10.7753 7.91241 10.7753 7.90932 10.7753C7.89698 10.7837 7.87478 10.7832 7.87219 10.8005C7.8594 10.8001 7.85181 10.8044 7.84433 10.8089C7.81675 10.8259 7.78022 10.8349 7.76078 10.8593C7.75769 10.8593 7.75459 10.8593 7.7515 10.8593C7.73916 10.8678 7.71695 10.8673 7.71436 10.8845C7.71127 10.8845 7.70817 10.8845 7.70508 10.8845C7.69274 10.893 7.67053 10.8925 7.66794 10.9098C7.66485 10.9098 7.66175 10.9098 7.65866 10.9098C7.62335 10.9282 7.58205 10.9413 7.55654 10.9686C7.55345 10.9686 7.55035 10.9686 7.54725 10.9686C7.53492 10.977 7.51271 10.9765 7.51012 10.9938C7.50703 10.9938 7.50393 10.9938 7.50083 10.9938C7.4885 11.0022 7.46629 11.0017 7.4637 11.019C7.46061 11.019 7.45751 11.019 7.45442 11.019C7.43693 11.0312 7.40618 11.0314 7.39871 11.0526C7.39562 11.0526 7.39252 11.0526 7.38943 11.0526C7.37709 11.0611 7.35488 11.0606 7.35229 11.0779C7.3492 11.0779 7.3461 11.0779 7.34301 11.0779C7.33067 11.0863 7.30847 11.0858 7.30588 11.1031C7.30278 11.1031 7.29968 11.1031 7.29659 11.1031C7.28425 11.1115 7.26205 11.111 7.25946 11.1283C7.25636 11.1283 7.25326 11.1283 7.25017 11.1283C7.23268 11.1405 7.20193 11.1406 7.19447 11.1619C7.19138 11.1619 7.18828 11.1619 7.18519 11.1619C7.17285 11.1703 7.15064 11.1698 7.14805 11.1871C7.14496 11.1871 7.14186 11.1871 7.13877 11.1871C7.12643 11.1956 7.10422 11.1951 7.10163 11.2123C7.09854 11.2123 7.09544 11.2123 7.09235 11.2123C7.08001 11.2208 7.0578 11.2203 7.05521 11.2375C7.05212 11.2375 7.04902 11.2375 7.04593 11.2375C7.03359 11.246 7.01138 11.2455 7.00879 11.2628C6.99601 11.2624 6.98842 11.2667 6.98094 11.2712C6.9686 11.2796 6.9464 11.2791 6.94381 11.2964C6.94072 11.2964 6.93762 11.2964 6.93452 11.2964C6.92219 11.3048 6.89998 11.3043 6.89739 11.3216C6.8943 11.3216 6.8912 11.3216 6.88811 11.3216C6.87577 11.33 6.85356 11.3295 6.85097 11.3468C6.84788 11.3468 6.84478 11.3468 6.84169 11.3468C6.82935 11.3553 6.80714 11.3548 6.80455 11.372C6.79177 11.3717 6.78417 11.376 6.7767 11.3804C6.74912 11.3975 6.71259 11.4064 6.69315 11.4309C6.69005 11.4309 6.68695 11.4309 6.68386 11.4309C6.67152 11.4393 6.64932 11.4388 6.64673 11.4561C6.64364 11.4561 6.64053 11.4561 6.63744 11.4561C6.6251 11.4645 6.6029 11.464 6.60031 11.4813C6.58752 11.4809 6.57993 11.4853 6.57246 11.4897C6.54487 11.5068 6.50834 11.5157 6.4889 11.5401C6.48581 11.5401 6.48271 11.5401 6.47962 11.5401C6.46728 11.5486 6.44507 11.5481 6.44248 11.5653C6.43939 11.5653 6.43629 11.5653 6.4332 11.5653C6.42086 11.5738 6.39865 11.5733 6.39606 11.5906C6.39297 11.5906 6.38987 11.5906 6.38678 11.5906C6.35147 11.609 6.31017 11.6221 6.28466 11.6494C6.28157 11.6494 6.27847 11.6494 6.27538 11.6494C6.26304 11.6578 6.24083 11.6573 6.23824 11.6746C6.23515 11.6746 6.23205 11.6746 6.22896 11.6746C6.21662 11.683 6.19441 11.6826 6.19182 11.6998C6.18873 11.6998 6.18563 11.6998 6.18254 11.6998C6.16505 11.712 6.1343 11.7122 6.12683 11.7334C6.12374 11.7334 6.12064 11.7334 6.11755 11.7334C6.10521 11.7419 6.08301 11.7414 6.08042 11.7587C6.07732 11.7587 6.07422 11.7587 6.07113 11.7587C6.05879 11.7671 6.03659 11.7666 6.034 11.7839C6.03091 11.7839 6.0278 11.7839 6.02471 11.7839C6.01238 11.7923 5.99017 11.7918 5.98758 11.8091C5.98449 11.8091 5.98139 11.8091 5.97829 11.8091C5.9608 11.8213 5.93006 11.8214 5.92259 11.8427C5.9195 11.8427 5.9164 11.8427 5.91331 11.8427C5.90097 11.8511 5.87876 11.8507 5.87617 11.8679C5.86998 11.8679 5.8638 11.8679 5.85761 11.8679C5.81436 10.0619 5.85137 8.192 5.83904 6.37103C7.78382 7.16001 9.71272 7.96297 11.6507 8.75806Z" fill="#141414"/>
</svg>
